#N canvas 3 35 1360 708 12;
#X obj 388 12 inlet;
#X obj 388 42 t b b;
#X obj 12 222 +;
#X obj 12 262 t f f;
#X obj 45 292 +;
#X obj 12 322 pack f f f;
#X msg 12 352 \$1 \, \$2 \$3;
#X obj 12 382 line~;
#X obj 12 542 *~;
#X obj 12 571 outlet~;
#X obj 99 542 *~;
#X obj 99 571 outlet~;
#X obj 279 265 f;
#X obj 279 315 pack f f;
#X msg 279 345 0 \, \$1 \$2;
#X obj 279 375 line~;
#X obj 279 475 *~;
#X obj 552 12 inlet;
#X obj 674 100 route manual noteon;
#X msg 723 165 0;
#X msg 748 165 1;
#X obj 684 165 f;
#X obj 684 195 spigot;
#X obj 674 225 s \$0-phase;
#X text 593 12 midi note;
#X text 429 12 grain on;
#X obj 388 102 s \$0-on;
#X obj 279 175 r \$0-on;
#X obj 12 132 r \$0-on;
#N canvas 788 42 449 708 pitch 0;
#X obj 12 547 outlet;
#X obj 12 477 f;
#X obj 12 507 *;
#X obj 90 332 mtof;
#X obj 12 417 /;
#X obj 47 447 t b f;
#X obj 30 72 r \$0-midiNote;
#X obj 75 162 t b f;
#N canvas 459 35 449 708 pitch-offset 0;
#X obj 12 460 outlet;
#X obj 12 41 random 100;
#X obj 42 243 random;
#X obj 42 301 t b f, f 8;
#X obj 42 330 f;
#X obj 42 272 * 0.01;
#X obj 42 359 spigot;
#X obj 130 360 spigot;
#X msg 12 128 0;
#X obj 12 99 sel 0 1, f 9;
#X obj 93 41 r \$0-offset-pitch-chance;
#X obj 60 128 r \$0-offset-pitch;
#X obj 113 330 r \$0-offset-pitch-precis;
#X obj 12 70 <, f 12;
#X obj 169 300 == 0;
#X obj 81 158 t f f, f 7;
#X obj 127 188 > 0;
#X obj 81 188 * 100;
#X obj 81 213 abs;
#X obj 95 370 *;
#X obj 42 410 -;
#X obj 130 410 +;
#X obj 12 12 r \$0-calculate;
#X obj 356 103 r \$0-seed;
#X obj 356 133 + 0;
#X msg 221 11 seed \$1;
#X msg 391 183 seed \$1;
#X obj 391 133 + 1;
#X connect 1 0 13 0;
#X connect 2 0 5 0;
#X connect 3 0 4 0;
#X connect 3 1 19 0;
#X connect 4 0 6 0;
#X connect 4 0 7 0;
#X connect 5 0 3 0;
#X connect 6 0 20 0;
#X connect 7 0 21 0;
#X connect 8 0 0 0;
#X connect 9 0 8 0;
#X connect 9 1 2 0;
#X connect 10 0 13 1;
#X connect 11 0 4 1;
#X connect 11 0 15 0;
#X connect 12 0 19 1;
#X connect 13 0 9 0;
#X connect 14 0 7 1;
#X connect 15 0 17 0;
#X connect 15 1 16 0;
#X connect 16 0 14 0;
#X connect 16 0 6 1;
#X connect 17 0 18 0;
#X connect 18 0 2 1;
#X connect 19 0 20 1;
#X connect 19 0 21 1;
#X connect 20 0 0 0;
#X connect 21 0 0 0;
#X connect 22 0 1 0;
#X connect 23 0 24 0;
#X connect 23 0 27 0;
#X connect 24 0 25 0;
#X connect 25 0 1 0;
#X connect 26 0 2 0;
#X connect 27 0 26 0;
#X restore 75 132 pd pitch-offset;
#X obj 47 417 inlet;
#X obj 62 102 r \$0-sample-note;
#X obj 12 362 pow, f 5;
#X msg 12 332 2;
#X obj 12 302 t b f;
#X obj 44 332 / 12;
#X obj 12 387 *, f 11;
#X obj 44 232 t b f f;
#X obj 12 12 r \$0-calculate;
#X obj 12 102 f;
#X obj 12 42 t b b;
#X obj 44 162 f;
#X obj 12 272 -, f 4;
#X obj 44 202 -, f 5;
#X connect 1 0 2 0;
#X connect 2 0 0 0;
#X connect 3 0 4 1;
#X connect 3 0 15 1;
#X connect 4 0 1 0;
#X connect 5 0 1 0;
#X connect 5 1 2 1;
#X connect 6 0 18 1;
#X connect 7 0 22 0;
#X connect 7 1 22 1;
#X connect 8 0 7 0;
#X connect 9 0 5 0;
#X connect 10 0 20 1;
#X connect 11 0 15 0;
#X connect 12 0 11 0;
#X connect 13 0 12 0;
#X connect 13 1 14 0;
#X connect 14 0 11 1;
#X connect 15 0 4 0;
#X connect 16 0 21 0;
#X connect 16 1 21 1;
#X connect 16 2 3 0;
#X connect 17 0 19 0;
#X connect 18 0 21 0;
#X connect 19 0 18 0;
#X connect 19 1 20 0;
#X connect 20 0 22 0;
#X connect 21 0 13 0;
#X connect 22 0 16 0;
#X restore 63 232 pd pitch;
#X obj 552 42 s \$0-midiNote;
#X obj 156 162 +;
#X obj 166 132 t b f;
#X obj 806 12 inlet;
#X msg 188 355 0 5;
#N canvas 459 35 449 708 samptoms 0;
#X obj 53 88 inlet;
#X obj 53 173 outlet;
#X obj 99 88 r \$0-sample-rate;
#X obj 99 113 * 0.001;
#X obj 53 143 /, f 7;
#X connect 0 0 4 0;
#X connect 2 0 3 0;
#X connect 3 0 4 1;
#X connect 4 0 1 0;
#X restore 188 263 pd samptoms;
#X obj 156 192 sel 0;
#X obj 12 452 tabread4~;
#X obj 99 452 tabread4~;
#X obj 279 435 tabread4~;
#X msg 22 422 set \$1-sampleL;
#X msg 134 422 set \$1-sampleR;
#X obj 900 72 s \$0-duration;
#X obj 174 42 r \$0-duration;
#N canvas 686 35 677 708 offset 0;
#X obj 20 43 inlet;
#X obj 20 83 route playhead pitch duration;
#N canvas 914 35 449 708 playhead 0;
#X obj 26 16 inlet;
#X obj 26 86 s \$0-offset-playhead;
#X obj 26 56 route float chance precis;
#X obj 83 111 s \$0-offset-playhead-chance;
#X obj 140 136 s \$0-offset-playhead-precis;
#X connect 0 0 2 0;
#X connect 2 0 1 0;
#X connect 2 1 3 0;
#X connect 2 2 4 0;
#X restore 20 113 pd playhead;
#N canvas 914 35 449 708 pitch 0;
#X obj 26 16 inlet;
#X obj 26 56 route float chance precis;
#X obj 26 86 s \$0-offset-pitch;
#X obj 83 111 s \$0-offset-pitch-chance;
#X obj 140 136 s \$0-offset-pitch-precis;
#X connect 0 0 1 0;
#X connect 1 0 2 0;
#X connect 1 1 3 0;
#X connect 1 2 4 0;
#X restore 111 113 pd pitch;
#N canvas 914 35 449 708 duration 0;
#X obj 26 16 inlet;
#X obj 26 56 route float chance precis;
#X obj 83 111 s \$0-offset-duration-chance;
#X obj 26 86 s \$0-offset-duration;
#X obj 140 136 s \$0-offset-duration-precis;
#X connect 0 0 1 0;
#X connect 1 0 3 0;
#X connect 1 1 2 0;
#X connect 1 2 4 0;
#X restore 181 113 pd duration;
#X connect 0 0 1 0;
#X connect 1 0 2 0;
#X connect 1 1 3 0;
#X connect 1 2 4 0;
#X restore 948 102 pd offset parse;
#N canvas 686 35 677 708 window 0;
#X obj 31 31 inlet;
#X obj 31 101 s \$0-window-duration;
#X obj 145 236 s \$0-window-shape;
#X obj 31 71 route duration fade shape;
#X obj 88 156 s \$0-fade-in;
#X obj 127 181 s \$0-fade-out;
#X obj 88 131 route in out time;
#X obj 165 206 s \$0-fade-time;
#X connect 0 0 3 0;
#X connect 3 0 1 0;
#X connect 3 1 6 0;
#X connect 3 2 2 0;
#X connect 6 0 4 0;
#X connect 6 1 5 0;
#X connect 6 2 7 0;
#X restore 1000 72 pd window;
#X obj 297 235 r \$0-window-duration;
#N canvas 686 35 677 708 sample 0;
#X obj 14 15 inlet;
#X obj 14 85 s \$0-sample-rate;
#X obj 59 110 s \$0-sample-note;
#X obj 14 55 route rate note chan;
#X obj 105 135 s \$0-sample-chan;
#X connect 0 0 3 0;
#X connect 3 0 1 0;
#X connect 3 1 2 0;
#X connect 3 2 4 0;
#X restore 1067 102 pd sample;
#N canvas 686 35 677 708 playhead 0;
#X obj 53 30 inlet;
#X obj 53 100 s \$0-playhead-pos;
#X obj 53 70 route pos;
#X connect 0 0 2 0;
#X connect 2 0 1 0;
#X restore 1090 72 pd playhead;
#X obj 674 70 r \$0-playhead-pos;
#X obj 134 372 r \$0-id;
#X obj 853 102 s \$0-id;
#X text 902 563 esta abstracción está pensada para ser instanciada
por un objeto [clone] y representa un grano que forma parte de una
voz del sintetizador;
#X text 855 128 id se utiliza para construir dinámicamente los nombres
de las tablas ubicadas en el parche principal \, para que el grano
pueda leer de ellas;
#X obj 806 72 s \$0-switch;
#X obj 359 321 r \$0-window-shape;
#X obj 359 381 list prepend;
#X obj 440 351 r \$0-id;
#X msg 359 405 set \$1-\$2;
#X obj 279 405 +~ 1;
#X obj 279 205 t b b;
#X obj 601 345 delay;
#X obj 503 435 line~;
#X obj 633 315 -;
#X obj 503 375 f;
#X obj 601 375 f;
#X msg 601 405 1 \, 0 \$1;
#X msg 503 405 0 \, 1 \$1;
#X obj 188 305 r \$0-switch;
#X obj 542 225 r \$0-switch;
#X obj 503 254 spigot;
#X obj 188 330 sel 0;
#N canvas 459 35 449 708 duration-offset 0;
#X obj 12 460 outlet;
#X obj 12 41 random 100;
#X obj 42 243 random;
#X obj 42 301 t b f, f 8;
#X obj 42 330 f;
#X obj 42 272 * 0.01;
#X obj 42 359 spigot;
#X obj 130 360 spigot;
#X msg 12 128 0;
#X obj 12 99 sel 0 1, f 9;
#X obj 12 70 <, f 12;
#X obj 169 300 == 0;
#X obj 81 158 t f f, f 7;
#X obj 127 188 > 0;
#X obj 81 188 * 100;
#X obj 81 213 abs;
#X obj 95 370 *;
#X obj 42 410 -;
#X obj 130 410 +;
#X obj 93 41 r \$0-offset-duration-chance;
#X obj 60 128 r \$0-offset-duration;
#X obj 113 330 r \$0-offset-duration-precis;
#X obj 12 12 r \$0-calculate;
#X obj 356 103 r \$0-seed;
#X msg 221 11 seed \$1;
#X msg 391 183 seed \$1;
#X obj 356 133 + 2;
#X obj 391 133 + 3;
#X connect 1 0 10 0;
#X connect 2 0 5 0;
#X connect 3 0 4 0;
#X connect 3 1 16 0;
#X connect 4 0 6 0;
#X connect 4 0 7 0;
#X connect 5 0 3 0;
#X connect 6 0 17 0;
#X connect 7 0 18 0;
#X connect 8 0 0 0;
#X connect 9 0 8 0;
#X connect 9 1 2 0;
#X connect 10 0 9 0;
#X connect 11 0 7 1;
#X connect 12 0 14 0;
#X connect 12 1 13 0;
#X connect 13 0 11 0;
#X connect 13 0 6 1;
#X connect 14 0 15 0;
#X connect 15 0 2 1;
#X connect 16 0 17 1;
#X connect 16 0 18 1;
#X connect 17 0 0 0;
#X connect 18 0 0 0;
#X connect 19 0 10 1;
#X connect 20 0 4 1;
#X connect 20 0 12 0;
#X connect 21 0 16 1;
#X connect 22 0 1 0;
#X connect 23 0 26 0;
#X connect 23 0 27 0;
#X connect 24 0 1 0;
#X connect 25 0 2 0;
#X connect 26 0 24 0;
#X connect 27 0 25 0;
#X restore 166 102 pd duration-offset;
#N canvas 459 35 449 708 time-offset 0;
#X obj 12 460 outlet;
#X obj 12 41 random 100;
#X obj 42 243 random;
#X obj 42 301 t b f, f 8;
#X obj 42 330 f;
#X obj 42 272 * 0.01;
#X obj 42 359 spigot;
#X obj 130 360 spigot;
#X msg 12 128 0;
#X obj 12 99 sel 0 1, f 9;
#X obj 12 70 <, f 12;
#X obj 169 300 == 0;
#X obj 81 158 t f f, f 7;
#X obj 127 188 > 0;
#X obj 81 188 * 100;
#X obj 81 213 abs;
#X obj 95 370 *;
#X obj 42 410 -;
#X obj 130 410 +;
#X obj 93 41 r \$0-offset-playhead-chance;
#X obj 60 128 r \$0-offset-playhead;
#X obj 113 330 r \$0-offset-playhead-precis;
#X obj 12 12 r \$0-calculate;
#X obj 356 103 r \$0-seed;
#X msg 221 11 seed \$1;
#X msg 391 183 seed \$1;
#X obj 356 133 + 4;
#X obj 391 133 + 5;
#X connect 1 0 10 0;
#X connect 2 0 5 0;
#X connect 3 0 4 0;
#X connect 3 1 16 0;
#X connect 4 0 6 0;
#X connect 4 0 7 0;
#X connect 5 0 3 0;
#X connect 6 0 17 0;
#X connect 7 0 18 0;
#X connect 8 0 0 0;
#X connect 9 0 8 0;
#X connect 9 1 2 0;
#X connect 10 0 9 0;
#X connect 11 0 7 1;
#X connect 12 0 14 0;
#X connect 12 1 13 0;
#X connect 13 0 11 0;
#X connect 13 0 6 1;
#X connect 14 0 15 0;
#X connect 15 0 2 1;
#X connect 16 0 17 1;
#X connect 16 0 18 1;
#X connect 17 0 0 0;
#X connect 18 0 0 0;
#X connect 19 0 10 1;
#X connect 20 0 4 1;
#X connect 20 0 12 0;
#X connect 21 0 16 1;
#X connect 22 0 1 0;
#X connect 23 0 26 0;
#X connect 23 0 27 0;
#X connect 24 0 1 0;
#X connect 25 0 2 0;
#X connect 26 0 24 0;
#X connect 27 0 25 0;
#X restore 47 192 pd time-offset;
#X obj 420 72 s \$0-calculate;
#X obj 156 12 r \$0-calculate;
#X obj 156 72 f;
#X obj 1138 102 s \$0-phas;
#X obj 30 162 r \$0-phas;
#X obj 12 192 f;
#X obj 1185 72 s \$0-dir;
#N canvas 459 35 449 708 dir 0;
#X obj 190 180 r \$0-dir;
#X obj 135 405 *, f 5;
#X obj 167 290 spigot;
#X obj 135 260 t f b;
#X msg 190 260 1;
#X msg 254 260 0;
#X obj 167 315 random 2;
#X obj 167 340 sel 0;
#X obj 222 230 t f b;
#X obj 190 205 sel 2;
#X obj 135 180 inlet;
#X obj 135 445 outlet;
#X msg 167 365 1;
#X msg 199 365 -1;
#X obj 316 225 r \$0-seed;
#X msg 316 285 seed \$1;
#X obj 316 255 + 6;
#X connect 0 0 9 0;
#X connect 1 0 11 0;
#X connect 2 0 6 0;
#X connect 3 0 1 0;
#X connect 3 1 2 0;
#X connect 4 0 2 1;
#X connect 5 0 2 1;
#X connect 6 0 7 0;
#X connect 7 0 12 0;
#X connect 7 1 13 0;
#X connect 8 0 7 0;
#X connect 8 1 5 0;
#X connect 9 0 4 0;
#X connect 9 1 8 0;
#X connect 10 0 3 0;
#X connect 12 0 1 1;
#X connect 13 0 1 1;
#X connect 14 0 16 0;
#X connect 15 0 6 0;
#X connect 16 0 15 0;
#X restore 63 262 pd dir;
#N canvas 686 35 677 708 stereo 0;
#X obj 50 72 inlet;
#X obj 50 97 route amount chance;
#X obj 50 127 s \$0-stereo-amount;
#X obj 115 152 s \$0-stereo-chance;
#X connect 0 0 1 0;
#X connect 1 0 2 0;
#X connect 1 1 3 0;
#X restore 1233 102 pd stereo;
#N canvas 686 35 677 708 stereodize 0;
#X obj 161 12 r \$0-calculate;
#X obj 242 42 r \$0-stereo-chance;
#X obj 161 42 random 100;
#X obj 161 71 <, f 12;
#X obj 12 12 inlet~;
#X obj 12 523 outlet~;
#X obj 95 12 inlet~;
#X obj 95 523 outlet~;
#X obj 12 430 *~;
#X obj 42 430 *~;
#X obj 95 430 *~;
#X obj 125 430 *~;
#X obj 161 190 random 1000;
#X obj 161 265 * 0.001;
#X obj 161 315 * 1.5708;
#X obj 200 345 + 4.71239;
#X obj 161 370 cos;
#X obj 200 370 cos;
#X obj 277 190 random 1000;
#X obj 277 290 * 0.001;
#X obj 277 315 * 1.5708;
#X obj 316 345 + 4.71239;
#X obj 277 370 cos;
#X obj 316 370 cos;
#X obj 277 240 *;
#X obj 161 240 *;
#X obj 161 215 - 1000;
#X obj 277 265 + 1000;
#X obj 179 160 * -1;
#X obj 277 215 - 1000;
#X obj 295 130 r \$0-stereo-amount;
#X obj 161 100 sel 1 0, f 9;
#X msg 191 130 1;
#X msg 216 130 0;
#X obj 435 60 r \$0-seed;
#X msg 338 12 seed \$1;
#X msg 470 140 seed \$1;
#X msg 533 140 seed \$1;
#X obj 435 90 + 7;
#X obj 470 90 + 8;
#X obj 533 90 + 9;
#X connect 0 0 2 0;
#X connect 1 0 3 1;
#X connect 2 0 3 0;
#X connect 3 0 31 0;
#X connect 4 0 8 0;
#X connect 4 0 9 0;
#X connect 6 0 10 0;
#X connect 6 0 11 0;
#X connect 8 0 5 0;
#X connect 9 0 7 0;
#X connect 10 0 5 0;
#X connect 11 0 7 0;
#X connect 12 0 26 0;
#X connect 13 0 14 0;
#X connect 14 0 16 0;
#X connect 14 0 15 0;
#X connect 15 0 17 0;
#X connect 16 0 8 1;
#X connect 17 0 9 1;
#X connect 18 0 29 0;
#X connect 19 0 20 0;
#X connect 20 0 22 0;
#X connect 20 0 21 0;
#X connect 21 0 23 0;
#X connect 22 0 10 1;
#X connect 23 0 11 1;
#X connect 24 0 27 0;
#X connect 25 0 13 0;
#X connect 26 0 25 0;
#X connect 27 0 19 0;
#X connect 28 0 25 1;
#X connect 29 0 24 0;
#X connect 30 0 28 0;
#X connect 30 0 24 1;
#X connect 31 0 12 0;
#X connect 31 0 18 0;
#X connect 31 1 32 0;
#X connect 31 1 33 0;
#X connect 32 0 8 1;
#X connect 32 0 11 1;
#X connect 33 0 9 1;
#X connect 33 0 10 1;
#X connect 34 0 38 0;
#X connect 34 0 39 0;
#X connect 34 0 40 0;
#X connect 35 0 2 0;
#X connect 36 0 12 0;
#X connect 37 0 18 0;
#X connect 38 0 35 0;
#X connect 39 0 36 0;
#X connect 40 0 37 0;
#X restore 12 482 pd stereodize;
#X obj 414 486 r \$0-sample-chan;
#X obj 414 511 t b f;
#X obj 266 547 spigot;
#X obj 183 570 spigot;
#X obj 446 536 sel 1;
#X msg 446 561 1;
#X msg 478 561 0;
#X obj 446 586 f;
#X obj 446 611 == 0;
#X obj 134 397 f;
#X obj 562 170 r \$0-fade-time;
#X obj 619 285 *;
#X obj 619 255 r \$0-fade-out;
#X obj 521 305 r \$0-fade-in;
#X obj 521 330 *;
#X obj 562 195 t b f;
#X obj 806 42 route switch id duration offset window sample playhead
phas dir stereo seed, f 75;
#X obj 1280 72 s \$0-seed;
#X obj 684 136 bang;
#X connect 0 0 1 0;
#X connect 1 0 26 0;
#X connect 1 1 74 0;
#X connect 2 0 3 0;
#X connect 3 0 5 0;
#X connect 3 1 4 0;
#X connect 4 0 5 1;
#X connect 5 0 6 0;
#X connect 6 0 7 0;
#X connect 7 0 37 0;
#X connect 7 0 38 0;
#X connect 8 0 9 0;
#X connect 10 0 11 0;
#X connect 12 0 13 0;
#X connect 13 0 14 0;
#X connect 14 0 15 0;
#X connect 15 0 59 0;
#X connect 16 0 10 1;
#X connect 16 0 8 1;
#X connect 17 0 30 0;
#X connect 17 0 102 0;
#X connect 18 0 19 0;
#X connect 18 0 23 0;
#X connect 18 1 20 0;
#X connect 18 1 21 1;
#X connect 19 0 22 1;
#X connect 20 0 22 1;
#X connect 21 0 22 0;
#X connect 22 0 23 0;
#X connect 27 0 60 0;
#X connect 28 0 79 0;
#X connect 29 0 81 0;
#X connect 31 0 36 0;
#X connect 32 0 31 0;
#X connect 32 1 31 1;
#X connect 33 0 100 0;
#X connect 34 0 15 0;
#X connect 35 0 13 1;
#X connect 35 0 5 2;
#X connect 35 0 63 0;
#X connect 36 1 29 0;
#X connect 36 1 35 0;
#X connect 37 0 83 0;
#X connect 38 0 83 1;
#X connect 39 0 16 0;
#X connect 40 0 37 0;
#X connect 40 0 87 0;
#X connect 41 0 86 0;
#X connect 43 0 76 1;
#X connect 46 0 12 1;
#X connect 49 0 18 0;
#X connect 50 0 93 0;
#X connect 55 0 56 0;
#X connect 56 0 58 0;
#X connect 57 0 56 1;
#X connect 58 0 39 0;
#X connect 59 0 39 0;
#X connect 60 0 12 0;
#X connect 60 1 70 0;
#X connect 61 0 65 0;
#X connect 62 0 16 1;
#X connect 63 0 61 1;
#X connect 64 0 67 0;
#X connect 65 0 66 0;
#X connect 66 0 62 0;
#X connect 67 0 62 0;
#X connect 68 0 71 0;
#X connect 69 0 70 1;
#X connect 70 0 64 0;
#X connect 70 0 61 0;
#X connect 71 0 34 0;
#X connect 72 0 32 0;
#X connect 73 0 2 1;
#X connect 75 0 76 0;
#X connect 76 0 31 0;
#X connect 78 0 79 1;
#X connect 79 0 2 0;
#X connect 81 0 4 1;
#X connect 83 0 8 0;
#X connect 83 1 10 0;
#X connect 84 0 85 0;
#X connect 85 0 93 0;
#X connect 85 1 88 0;
#X connect 86 0 38 0;
#X connect 87 0 38 0;
#X connect 88 0 89 0;
#X connect 88 1 90 0;
#X connect 89 0 91 0;
#X connect 90 0 91 0;
#X connect 91 0 92 0;
#X connect 91 0 87 1;
#X connect 92 0 86 1;
#X connect 93 0 41 0;
#X connect 93 0 40 0;
#X connect 94 0 99 0;
#X connect 95 0 63 1;
#X connect 95 0 65 1;
#X connect 96 0 95 0;
#X connect 97 0 98 0;
#X connect 98 0 64 1;
#X connect 99 0 98 0;
#X connect 99 0 95 0;
#X connect 99 1 98 1;
#X connect 99 1 95 1;
#X connect 100 0 54 0;
#X connect 100 1 51 0;
#X connect 100 2 42 0;
#X connect 100 3 44 0;
#X connect 100 4 45 0;
#X connect 100 5 47 0;
#X connect 100 6 48 0;
#X connect 100 7 77 0;
#X connect 100 8 80 0;
#X connect 100 9 82 0;
#X connect 100 10 101 0;
#X connect 102 0 21 0;
