#N canvas -8 -8 1366 685 12;
#N canvas 686 35 677 708 adsr 0;
#X msg 292 72 legato \$1;
#X msg 222 72 rel \$1;
#X msg 152 72 sus \$1;
#X obj 152 42 * 0.01;
#X msg 82 72 dec \$1;
#X msg 12 72 att \$1;
#X obj 292 12 r \$0-legato;
#X obj 222 12 r \$0-rel;
#X obj 152 12 r \$0-sus;
#X obj 82 12 r \$0-dec;
#X obj 12 12 r \$0-att;
#X obj 152 132 list prepend adsr;
#X obj 152 162 s \$0-params;
#X text 30 201 se reciben los parámetros de envolvente y se envían
a todas las voces instanciadas por [clone];
#X connect 0 0 11 0;
#X connect 1 0 11 0;
#X connect 2 0 11 0;
#X connect 3 0 2 0;
#X connect 4 0 11 0;
#X connect 5 0 11 0;
#X connect 6 0 0 0;
#X connect 7 0 1 0;
#X connect 8 0 3 0;
#X connect 9 0 4 0;
#X connect 10 0 5 0;
#X connect 11 0 12 0;
#X restore 12 435 pd adsr;
#N canvas 552 16 1366 685 window 0;
#X obj 13 28 loadbang;
#X obj 317 378 soundfiler;
#X obj 398 288 f \$0;
#X obj 398 258 loadbang;
#X obj 317 318 list prepend;
#X obj 317 258 openpanel;
#X msg 201 298 symbol \$1;
#X obj 181 261 symbol;
#X obj 181 328 s \$0-window-path;
#X obj 100 201 r \$0-window-path-r;
#X obj 100 231 route symbol;
#X obj 23 88 s \$0-window-duration;
#X obj 13 118 list prepend pass window duration;
#X obj 13 143 s \$0-params;
#X obj 549 55 r \$0-window-sel;
#X obj 549 220 sel 0 1 2 3 4 5;
#X msg 549 250 straight;
#X msg 566 275 hann;
#X msg 583 300 tri;
#X msg 634 375 custom;
#X msg 317 348 read \$2 \$1-custom;
#X msg 13 58 512;
#X obj 549 425 list prepend pass window shape;
#X obj 549 450 s \$0-params;
#X obj 159 578 tabread4~;
#X msg 441 439 set \$1-\$2;
#X obj 441 414 list prepend;
#X obj 51 418 samplerate~;
#X obj 51 508 phasor~, f 19;
#X obj 11 348 r \$0-window-duration;
#X obj 51 448 /;
#X obj 549 80 t b f;
#X obj 149 418 t b b;
#X msg 181 448 0;
#X obj 51 538 *~ 128, f 10;
#X obj 773 465 s \$0-window-sel-r;
#X obj 773 415 list prepend label;
#X obj 773 440 list trim;
#X obj 51 478 *;
#X obj 92 448 / 128;
#N canvas 0 50 450 250 (subpatch) 0;
#X array \$0-hann 515 float 1;
#A 0 3.76105e-05 0 3.76701e-05 0.000150651 0.000338882 0.000602394
0.000941098 0.00135493 0.0018439 0.00240788 0.00304678 0.00376052 0.004549
0.0054121 0.00634968 0.00736159 0.00844771 0.00960785 0.0108418 0.0121495
0.0135306 0.014985 0.0165124 0.0181127 0.0197855 0.0215306 0.0233478
0.0252367 0.0271972 0.0292289 0.0313314 0.0335046 0.035748 0.0380613
0.0404442 0.0428962 0.0454172 0.0480066 0.050664 0.0533891 0.0561815
0.0590407 0.0619664 0.0649579 0.068015 0.0711372 0.074324 0.0775748
0.0808893 0.0842669 0.0877071 0.0912094 0.0947732 0.0983981 0.102083
0.105829 0.109633 0.113497 0.117418 0.121398 0.125434 0.129527 0.133675
0.137879 0.142137 0.146449 0.150814 0.155232 0.159702 0.164223 0.168795
0.173416 0.178087 0.182806 0.187573 0.192387 0.197247 0.202153 0.207104
0.212099 0.217137 0.222218 0.22734 0.232504 0.237708 0.242952 0.248234
0.253554 0.258911 0.264305 0.269734 0.275198 0.280695 0.286226 0.291789
0.297383 0.303007 0.308662 0.314345 0.320056 0.325794 0.331559 0.337348
0.343163 0.349001 0.354861 0.360744 0.366647 0.372571 0.378514 0.384475
0.390453 0.396448 0.402459 0.408484 0.414523 0.420575 0.426639 0.432714
0.438799 0.444893 0.450996 0.457106 0.463222 0.469344 0.47547 0.481601
0.487734 0.493868 0.500004 0.50614 0.512275 0.518408 0.524538 0.530665
0.536787 0.542903 0.549013 0.555116 0.56121 0.567295 0.57337 0.579434
0.585485 0.591524 0.59755 0.60356 0.609555 0.615534 0.621495 0.627437
0.633361 0.639264 0.645147 0.651007 0.656845 0.66266 0.668449 0.674214
0.679952 0.685663 0.691346 0.697001 0.702625 0.708219 0.713782 0.719313
0.72481 0.730274 0.735703 0.741096 0.746453 0.751774 0.757056 0.762299
0.767503 0.772667 0.777789 0.78287 0.787908 0.792903 0.797854 0.80276
0.80762 0.812434 0.817201 0.82192 0.82659 0.831212 0.835783 0.840304
0.844774 0.849192 0.853557 0.857869 0.862127 0.866331 0.870479 0.874572
0.878608 0.882587 0.886509 0.890372 0.894177 0.897922 0.901607 0.905232
0.908796 0.912298 0.915738 0.919115 0.92243 0.925681 0.928867 0.931989
0.935046 0.938038 0.940963 0.943823 0.946615 0.94934 0.951997 0.954586
0.957107 0.959559 0.961942 0.964255 0.966499 0.968672 0.970774 0.972806
0.974766 0.976655 0.978472 0.980217 0.98189 0.98349 0.985017 0.986471
0.987852 0.98916 0.990394 0.991554 0.99264 0.993652 0.994589 0.995452
0.996241 0.996954 0.997593 0.998157 0.998646 0.999059 0.999398 0.999661
0.99985 0.999962 1 0.999962 0.999849 0.999661 0.999398 0.999059 0.998645
0.998156 0.997592 0.996953 0.99624 0.995451 0.994588 0.993651 0.992639
0.991553 0.990393 0.989159 0.987851 0.98647 0.985016 0.983488 0.981888
0.980215 0.97847 0.976653 0.974764 0.972804 0.970772 0.96867 0.966496
0.964253 0.96194 0.959557 0.957105 0.954584 0.951995 0.949337 0.946612
0.94382 0.940961 0.938035 0.935044 0.931987 0.928864 0.925678 0.922427
0.919113 0.915735 0.912295 0.908793 0.905229 0.901604 0.897919 0.894174
0.890369 0.886506 0.882584 0.878605 0.874569 0.870476 0.866328 0.862124
0.857866 0.853554 0.849189 0.844771 0.840301 0.83578 0.831208 0.826587
0.821916 0.817197 0.81243 0.807616 0.802756 0.79785 0.7929 0.787905
0.782867 0.777786 0.772663 0.7675 0.762296 0.757052 0.75177 0.74645
0.741093 0.735699 0.73027 0.724806 0.719309 0.713778 0.708215 0.702621
0.696997 0.691342 0.685659 0.679948 0.67421 0.668445 0.662656 0.656841
0.651003 0.645143 0.63926 0.633357 0.627433 0.62149 0.615529 0.609551
0.603556 0.597546 0.59152 0.585481 0.579429 0.573365 0.567291 0.561206
0.555111 0.549009 0.542899 0.536782 0.530661 0.524534 0.518404 0.512271
0.506136 0.5 0.493864 0.487729 0.481596 0.475466 0.46934 0.463218 0.457101
0.450991 0.444889 0.438795 0.432709 0.426635 0.420571 0.414519 0.40848
0.402455 0.396444 0.390449 0.384471 0.37851 0.372567 0.366643 0.36074
0.354857 0.348997 0.343159 0.337344 0.331555 0.32579 0.320052 0.314341
0.308658 0.303003 0.297379 0.291785 0.286222 0.280691 0.275194 0.26973
0.264301 0.258908 0.25355 0.24823 0.242948 0.237705 0.232501 0.227337
0.222214 0.217133 0.212095 0.2071 0.20215 0.197244 0.192383 0.18757
0.182803 0.178084 0.173413 0.168791 0.16422 0.159699 0.155229 0.150811
0.146446 0.142134 0.137876 0.133672 0.129524 0.125431 0.121395 0.117416
0.113494 0.109631 0.105826 0.102081 0.0983955 0.0947706 0.0912068 0.0877046
0.0842644 0.0808869 0.0775725 0.0743217 0.071135 0.0680128 0.0649558
0.0619642 0.0590387 0.0561795 0.0533872 0.0506621 0.0480047 0.0454153
0.0428945 0.0404424 0.0380596 0.0357463 0.033503 0.0313299 0.0292274
0.0271958 0.0252354 0.0233465 0.0215293 0.0197842 0.0181115 0.0165113
0.0149839 0.0135296 0.0121485 0.0108409 0.00960699 0.0084469 0.00736085
0.00634897 0.00541145 0.0045484 0.00375998 0.0030463 0.00240743 0.00184351
0.0013546 0.00094083 0.000602156 0.000338733 0.000150532 3.76105e-05
0 3.76701e-05;
#X coords 0 1 514 0 60 30 1 0 0;
#X restore 886 177 graph;
#N canvas 104 104 450 250 (subpatch) 0;
#X array \$0-tri 515 float 1;
#A 0 0.00390625 0 0.00390625 0.0078125 0.0117188 0.015625 0.0195312
0.0234375 0.0273438 0.03125 0.0351562 0.0390625 0.0429688 0.046875
0.0507812 0.0546875 0.0585938 0.0625 0.0664062 0.0703125 0.0742188
0.078125 0.0820312 0.0859375 0.0898438 0.09375 0.0976562 0.101562 0.105469
0.109375 0.113281 0.117188 0.121094 0.125 0.128906 0.132812 0.136719
0.140625 0.144531 0.148438 0.152344 0.15625 0.160156 0.164062 0.167969
0.171875 0.175781 0.179688 0.183594 0.1875 0.191406 0.195312 0.199219
0.203125 0.207031 0.210938 0.214844 0.21875 0.222656 0.226562 0.230469
0.234375 0.238281 0.242188 0.246094 0.25 0.253906 0.257812 0.261719
0.265625 0.269531 0.273438 0.277344 0.28125 0.285156 0.289062 0.292969
0.296875 0.300781 0.304688 0.308594 0.3125 0.316406 0.320312 0.324219
0.328125 0.332031 0.335938 0.339844 0.34375 0.347656 0.351562 0.355469
0.359375 0.363281 0.367188 0.371094 0.375 0.378906 0.382812 0.386719
0.390625 0.394531 0.398438 0.402344 0.40625 0.410156 0.414062 0.417969
0.421875 0.425781 0.429688 0.433594 0.4375 0.441406 0.445312 0.449219
0.453125 0.457031 0.460938 0.464844 0.46875 0.472656 0.476562 0.480469
0.484375 0.488281 0.492188 0.496094 0.5 0.503906 0.507812 0.511719
0.515625 0.519531 0.523438 0.527344 0.53125 0.535156 0.539062 0.542969
0.546875 0.550781 0.554688 0.558594 0.5625 0.566406 0.570312 0.574219
0.578125 0.582031 0.585938 0.589844 0.59375 0.597656 0.601562 0.605469
0.609375 0.613281 0.617188 0.621094 0.625 0.628906 0.632812 0.636719
0.640625 0.644531 0.648438 0.652344 0.65625 0.660156 0.664062 0.667969
0.671875 0.675781 0.679688 0.683594 0.6875 0.691406 0.695312 0.699219
0.703125 0.707031 0.710938 0.714844 0.71875 0.722656 0.726562 0.730469
0.734375 0.738281 0.742188 0.746094 0.75 0.753906 0.757812 0.761719
0.765625 0.769531 0.773438 0.777344 0.78125 0.785156 0.789062 0.792969
0.796875 0.800781 0.804688 0.808594 0.8125 0.816406 0.820312 0.824219
0.828125 0.832031 0.835938 0.839844 0.84375 0.847656 0.851562 0.855469
0.859375 0.863281 0.867188 0.871094 0.875 0.878906 0.882812 0.886719
0.890625 0.894531 0.898438 0.902344 0.90625 0.910156 0.914062 0.917969
0.921875 0.925781 0.929688 0.933594 0.9375 0.941406 0.945312 0.949219
0.953125 0.957031 0.960938 0.964844 0.96875 0.972656 0.976562 0.980469
0.984375 0.988281 0.992188 0.996094 1 0.996094 0.992188 0.988281 0.984375
0.980469 0.976562 0.972656 0.96875 0.964844 0.960938 0.957031 0.953125
0.949219 0.945312 0.941406 0.9375 0.933594 0.929688 0.925781 0.921875
0.917969 0.914062 0.910156 0.90625 0.902344 0.898438 0.894531 0.890625
0.886719 0.882812 0.878906 0.875 0.871094 0.867188 0.863281 0.859375
0.855469 0.851562 0.847656 0.84375 0.839844 0.835938 0.832031 0.828125
0.824219 0.820312 0.816406 0.8125 0.808594 0.804688 0.800781 0.796875
0.792969 0.789062 0.785156 0.78125 0.777344 0.773438 0.769531 0.765625
0.761719 0.757812 0.753906 0.75 0.746094 0.742188 0.738281 0.734375
0.730469 0.726562 0.722656 0.71875 0.714844 0.710938 0.707031 0.703125
0.699219 0.695312 0.691406 0.6875 0.683594 0.679688 0.675781 0.671875
0.667969 0.664062 0.660156 0.65625 0.652344 0.648438 0.644531 0.640625
0.636719 0.632812 0.628906 0.625 0.621094 0.617188 0.613281 0.609375
0.605469 0.601562 0.597656 0.59375 0.589844 0.585938 0.582031 0.578125
0.574219 0.570312 0.566406 0.5625 0.558594 0.554688 0.550781 0.546875
0.542969 0.539062 0.535156 0.53125 0.527344 0.523438 0.519531 0.515625
0.511719 0.507812 0.503906 0.5 0.496094 0.492188 0.488281 0.484375
0.480469 0.476562 0.472656 0.46875 0.464844 0.460938 0.457031 0.453125
0.449219 0.445312 0.441406 0.4375 0.433594 0.429688 0.425781 0.421875
0.417969 0.414062 0.410156 0.40625 0.402344 0.398438 0.394531 0.390625
0.386719 0.382812 0.378906 0.375 0.371094 0.367188 0.363281 0.359375
0.355469 0.351562 0.347656 0.34375 0.339844 0.335938 0.332031 0.328125
0.324219 0.320312 0.316406 0.3125 0.308594 0.304688 0.300781 0.296875
0.292969 0.289062 0.285156 0.28125 0.277344 0.273438 0.269531 0.265625
0.261719 0.257812 0.253906 0.25 0.246094 0.242188 0.238281 0.234375
0.230469 0.226562 0.222656 0.21875 0.214844 0.210938 0.207031 0.203125
0.199219 0.195312 0.191406 0.1875 0.183594 0.179688 0.175781 0.171875
0.167969 0.164062 0.160156 0.15625 0.152344 0.148438 0.144531 0.140625
0.136719 0.132812 0.128906 0.125 0.121094 0.117188 0.113281 0.109375
0.105469 0.101562 0.0976562 0.09375 0.0898438 0.0859375 0.0820312 0.078125
0.0742188 0.0703125 0.0664062 0.0625 0.0585938 0.0546875 0.0507812
0.046875 0.0429688 0.0390625 0.0351562 0.03125 0.0273438 0.0234375
0.0195312 0.015625 0.0117188 0.0078125 0.00390625 0 0.00390625;
#X coords 0 1 514 0 60 30 1 0 0;
#X restore 976 102 graph;
#N canvas 0 50 450 250 (subpatch) 0;
#X array \$0-down 515 float 1;
#A 0 0.00195312 1 0.998047 0.996094 0.994141 0.992188 0.990234 0.988281
0.986328 0.984375 0.982422 0.980469 0.978516 0.976562 0.974609 0.972656
0.970703 0.96875 0.966797 0.964844 0.962891 0.960938 0.958984 0.957031
0.955078 0.953125 0.951172 0.949219 0.947266 0.945312 0.943359 0.941406
0.939453 0.9375 0.935547 0.933594 0.931641 0.929688 0.927734 0.925781
0.923828 0.921875 0.919922 0.917969 0.916016 0.914062 0.912109 0.910156
0.908203 0.90625 0.904297 0.902344 0.900391 0.898438 0.896484 0.894531
0.892578 0.890625 0.888672 0.886719 0.884766 0.882812 0.880859 0.878906
0.876953 0.875 0.873047 0.871094 0.869141 0.867188 0.865234 0.863281
0.861328 0.859375 0.857422 0.855469 0.853516 0.851562 0.849609 0.847656
0.845703 0.84375 0.841797 0.839844 0.837891 0.835938 0.833984 0.832031
0.830078 0.828125 0.826172 0.824219 0.822266 0.820312 0.818359 0.816406
0.814453 0.8125 0.810547 0.808594 0.806641 0.804688 0.802734 0.800781
0.798828 0.796875 0.794922 0.792969 0.791016 0.789062 0.787109 0.785156
0.783203 0.78125 0.779297 0.777344 0.775391 0.773438 0.771484 0.769531
0.767578 0.765625 0.763672 0.761719 0.759766 0.757812 0.755859 0.753906
0.751953 0.75 0.748047 0.746094 0.744141 0.742188 0.740234 0.738281
0.736328 0.734375 0.732422 0.730469 0.728516 0.726562 0.724609 0.722656
0.720703 0.71875 0.716797 0.714844 0.712891 0.710938 0.708984 0.707031
0.705078 0.703125 0.701172 0.699219 0.697266 0.695312 0.693359 0.691406
0.689453 0.6875 0.685547 0.683594 0.681641 0.679688 0.677734 0.675781
0.673828 0.671875 0.669922 0.667969 0.666016 0.664062 0.662109 0.660156
0.658203 0.65625 0.654297 0.652344 0.650391 0.648438 0.646484 0.644531
0.642578 0.640625 0.638672 0.636719 0.634766 0.632812 0.630859 0.628906
0.626953 0.625 0.623047 0.621094 0.619141 0.617188 0.615234 0.613281
0.611328 0.609375 0.607422 0.605469 0.603516 0.601562 0.599609 0.597656
0.595703 0.59375 0.591797 0.589844 0.587891 0.585938 0.583984 0.582031
0.580078 0.578125 0.576172 0.574219 0.572266 0.570312 0.568359 0.566406
0.564453 0.5625 0.560547 0.558594 0.556641 0.554688 0.552734 0.550781
0.548828 0.546875 0.544922 0.542969 0.541016 0.539062 0.537109 0.535156
0.533203 0.53125 0.529297 0.527344 0.525391 0.523438 0.521484 0.519531
0.517578 0.515625 0.513672 0.511719 0.509766 0.507812 0.505859 0.503906
0.501953 0.5 0.498047 0.496094 0.494141 0.492188 0.490234 0.488281
0.486328 0.484375 0.482422 0.480469 0.478516 0.476562 0.474609 0.472656
0.470703 0.46875 0.466797 0.464844 0.462891 0.460938 0.458984 0.457031
0.455078 0.453125 0.451172 0.449219 0.447266 0.445312 0.443359 0.441406
0.439453 0.4375 0.435547 0.433594 0.431641 0.429688 0.427734 0.425781
0.423828 0.421875 0.419922 0.417969 0.416016 0.414062 0.412109 0.410156
0.408203 0.40625 0.404297 0.402344 0.400391 0.398438 0.396484 0.394531
0.392578 0.390625 0.388672 0.386719 0.384766 0.382812 0.380859 0.378906
0.376953 0.375 0.373047 0.371094 0.369141 0.367188 0.365234 0.363281
0.361328 0.359375 0.357422 0.355469 0.353516 0.351562 0.349609 0.347656
0.345703 0.34375 0.341797 0.339844 0.337891 0.335938 0.333984 0.332031
0.330078 0.328125 0.326172 0.324219 0.322266 0.320312 0.318359 0.316406
0.314453 0.3125 0.310547 0.308594 0.306641 0.304688 0.302734 0.300781
0.298828 0.296875 0.294922 0.292969 0.291016 0.289062 0.287109 0.285156
0.283203 0.28125 0.279297 0.277344 0.275391 0.273438 0.271484 0.269531
0.267578 0.265625 0.263672 0.261719 0.259766 0.257812 0.255859 0.253906
0.251953 0.25 0.248047 0.246094 0.244141 0.242188 0.240234 0.238281
0.236328 0.234375 0.232422 0.230469 0.228516 0.226562 0.224609 0.222656
0.220703 0.21875 0.216797 0.214844 0.212891 0.210938 0.208984 0.207031
0.205078 0.203125 0.201172 0.199219 0.197266 0.195312 0.193359 0.191406
0.189453 0.1875 0.185547 0.183594 0.181641 0.179688 0.177734 0.175781
0.173828 0.171875 0.169922 0.167969 0.166016 0.164062 0.162109 0.160156
0.158203 0.15625 0.154297 0.152344 0.150391 0.148438 0.146484 0.144531
0.142578 0.140625 0.138672 0.136719 0.134766 0.132812 0.130859 0.128906
0.126953 0.125 0.123047 0.121094 0.119141 0.117188 0.115234 0.113281
0.111328 0.109375 0.107422 0.105469 0.103516 0.101562 0.0996094 0.0976562
0.0957031 0.09375 0.0917969 0.0898438 0.0878906 0.0859375 0.0839844
0.0820312 0.0800781 0.078125 0.0761719 0.0742188 0.0722656 0.0703125
0.0683594 0.0664062 0.0644531 0.0625 0.0605469 0.0585938 0.0566406
0.0546875 0.0527344 0.0507812 0.0488281 0.046875 0.0449219 0.0429688
0.0410156 0.0390625 0.0371094 0.0351562 0.0332031 0.03125 0.0292969
0.0273438 0.0253906 0.0234375 0.0214844 0.0195312 0.0175781 0.015625
0.0136719 0.0117188 0.00976562 0.0078125 0.00585938 0.00390625 0.00195312
1 0.998047;
#X coords 0 1 514 0 60 30 1 0 0;
#X restore 976 152 graph;
#N canvas 0 50 450 250 (subpatch) 0;
#X array \$0-up 515 float 1;
#A 0 0.998047 0 0.00195312 0.00390625 0.00585938 0.0078125 0.00976562
0.0117188 0.0136719 0.015625 0.0175781 0.0195312 0.0214844 0.0234375
0.0253906 0.0273438 0.0292969 0.03125 0.0332031 0.0351562 0.0371094
0.0390625 0.0410156 0.0429688 0.0449219 0.046875 0.0488281 0.0507812
0.0527344 0.0546875 0.0566406 0.0585938 0.0605469 0.0625 0.0644531
0.0664062 0.0683594 0.0703125 0.0722656 0.0742188 0.0761719 0.078125
0.0800781 0.0820312 0.0839844 0.0859375 0.0878906 0.0898438 0.0917969
0.09375 0.0957031 0.0976562 0.0996094 0.101562 0.103516 0.105469 0.107422
0.109375 0.111328 0.113281 0.115234 0.117188 0.119141 0.121094 0.123047
0.125 0.126953 0.128906 0.130859 0.132812 0.134766 0.136719 0.138672
0.140625 0.142578 0.144531 0.146484 0.148438 0.150391 0.152344 0.154297
0.15625 0.158203 0.160156 0.162109 0.164062 0.166016 0.167969 0.169922
0.171875 0.173828 0.175781 0.177734 0.179688 0.181641 0.183594 0.185547
0.1875 0.189453 0.191406 0.193359 0.195312 0.197266 0.199219 0.201172
0.203125 0.205078 0.207031 0.208984 0.210938 0.212891 0.214844 0.216797
0.21875 0.220703 0.222656 0.224609 0.226562 0.228516 0.230469 0.232422
0.234375 0.236328 0.238281 0.240234 0.242188 0.244141 0.246094 0.248047
0.25 0.251953 0.253906 0.255859 0.257812 0.259766 0.261719 0.263672
0.265625 0.267578 0.269531 0.271484 0.273438 0.275391 0.277344 0.279297
0.28125 0.283203 0.285156 0.287109 0.289062 0.291016 0.292969 0.294922
0.296875 0.298828 0.300781 0.302734 0.304688 0.306641 0.308594 0.310547
0.3125 0.314453 0.316406 0.318359 0.320312 0.322266 0.324219 0.326172
0.328125 0.330078 0.332031 0.333984 0.335938 0.337891 0.339844 0.341797
0.34375 0.345703 0.347656 0.349609 0.351562 0.353516 0.355469 0.357422
0.359375 0.361328 0.363281 0.365234 0.367188 0.369141 0.371094 0.373047
0.375 0.376953 0.378906 0.380859 0.382812 0.384766 0.386719 0.388672
0.390625 0.392578 0.394531 0.396484 0.398438 0.400391 0.402344 0.404297
0.40625 0.408203 0.410156 0.412109 0.414062 0.416016 0.417969 0.419922
0.421875 0.423828 0.425781 0.427734 0.429688 0.431641 0.433594 0.435547
0.4375 0.439453 0.441406 0.443359 0.445312 0.447266 0.449219 0.451172
0.453125 0.455078 0.457031 0.458984 0.460938 0.462891 0.464844 0.466797
0.46875 0.470703 0.472656 0.474609 0.476562 0.478516 0.480469 0.482422
0.484375 0.486328 0.488281 0.490234 0.492188 0.494141 0.496094 0.498047
0.5 0.501953 0.503906 0.505859 0.507812 0.509766 0.511719 0.513672
0.515625 0.517578 0.519531 0.521484 0.523438 0.525391 0.527344 0.529297
0.53125 0.533203 0.535156 0.537109 0.539062 0.541016 0.542969 0.544922
0.546875 0.548828 0.550781 0.552734 0.554688 0.556641 0.558594 0.560547
0.5625 0.564453 0.566406 0.568359 0.570312 0.572266 0.574219 0.576172
0.578125 0.580078 0.582031 0.583984 0.585938 0.587891 0.589844 0.591797
0.59375 0.595703 0.597656 0.599609 0.601562 0.603516 0.605469 0.607422
0.609375 0.611328 0.613281 0.615234 0.617188 0.619141 0.621094 0.623047
0.625 0.626953 0.628906 0.630859 0.632812 0.634766 0.636719 0.638672
0.640625 0.642578 0.644531 0.646484 0.648438 0.650391 0.652344 0.654297
0.65625 0.658203 0.660156 0.662109 0.664062 0.666016 0.667969 0.669922
0.671875 0.673828 0.675781 0.677734 0.679688 0.681641 0.683594 0.685547
0.6875 0.689453 0.691406 0.693359 0.695312 0.697266 0.699219 0.701172
0.703125 0.705078 0.707031 0.708984 0.710938 0.712891 0.714844 0.716797
0.71875 0.720703 0.722656 0.724609 0.726562 0.728516 0.730469 0.732422
0.734375 0.736328 0.738281 0.740234 0.742188 0.744141 0.746094 0.748047
0.75 0.751953 0.753906 0.755859 0.757812 0.759766 0.761719 0.763672
0.765625 0.767578 0.769531 0.771484 0.773438 0.775391 0.777344 0.779297
0.78125 0.783203 0.785156 0.787109 0.789062 0.791016 0.792969 0.794922
0.796875 0.798828 0.800781 0.802734 0.804688 0.806641 0.808594 0.810547
0.8125 0.814453 0.816406 0.818359 0.820312 0.822266 0.824219 0.826172
0.828125 0.830078 0.832031 0.833984 0.835938 0.837891 0.839844 0.841797
0.84375 0.845703 0.847656 0.849609 0.851562 0.853516 0.855469 0.857422
0.859375 0.861328 0.863281 0.865234 0.867188 0.869141 0.871094 0.873047
0.875 0.876953 0.878906 0.880859 0.882812 0.884766 0.886719 0.888672
0.890625 0.892578 0.894531 0.896484 0.898438 0.900391 0.902344 0.904297
0.90625 0.908203 0.910156 0.912109 0.914062 0.916016 0.917969 0.919922
0.921875 0.923828 0.925781 0.927734 0.929688 0.931641 0.933594 0.935547
0.9375 0.939453 0.941406 0.943359 0.945312 0.947266 0.949219 0.951172
0.953125 0.955078 0.957031 0.958984 0.960938 0.962891 0.964844 0.966797
0.96875 0.970703 0.972656 0.974609 0.976562 0.978516 0.980469 0.982422
0.984375 0.986328 0.988281 0.990234 0.992188 0.994141 0.996094 0.998047
0 0.00195312;
#X coords 0 1 514 0 60 30 1 0 0;
#X restore 976 202 graph;
#N canvas 0 50 450 250 (subpatch) 0;
#X array \$0-straight 515 float 3;
#A 0 1 1 1 1 1 1 1 1 1 1 1 1 1 1 1 1 1 1 1 1 1 1 1 1 1 1 1 1 1 1 1
1 1 1 1 1 1 1 1 1 1 1 1 1 1 1 1 1 1 1 1 1 1 1 1 1 1 1 1 1 1 1 1 1 1
1 1 1 1 1 1 1 1 1 1 1 1 1 1 1 1 1 1 1 1 1 1 1 1 1 1 1 1 1 1 1 1 1 1
1 1 1 1 1 1 1 1 1 1 1 1 1 1 1 1 1 1 1 1 1 1 1 1 1 1 1 1 1 1 1 1 1 1
1 1 1 1 1 1 1 1 1 1 1 1 1 1 1 1 1 1 1 1 1 1 1 1 1 1 1 1 1 1 1 1 1 1
1 1 1 1 1 1 1 1 1 1 1 1 1 1 1 1 1 1 1 1 1 1 1 1 1 1 1 1 1 1 1 1 1 1
1 1 1 1 1 1 1 1 1 1 1 1 1 1 1 1 1 1 1 1 1 1 1 1 1 1 1 1 1 1 1 1 1 1
1 1 1 1 1 1 1 1 1 1 1 1 1 1 1 1 1 1 1 1 1 1 1 1 1 1 1 1 1 1 1 1 1 1
1 1 1 1 1 1 1 1 1 1 1 1 1 1 1 1 1 1 1 1 1 1 1 1 1 1 1 1 1 1 1 1 1 1
1 1 1 1 1 1 1 1 1 1 1 1 1 1 1 1 1 1 1 1 1 1 1 1 1 1 1 1 1 1 1 1 1 1
1 1 1 1 1 1 1 1 1 1 1 1 1 1 1 1 1 1 1 1 1 1 1 1 1 1 1 1 1 1 1 1 1 1
1 1 1 1 1 1 1 1 1 1 1 1 1 1 1 1 1 1 1 1 1 1 1 1 1 1 1 1 1 1 1 1 1 1
1 1 1 1 1 1 1 1 1 1 1 1 1 1 1 1 1 1 1 1 1 1 1 1 1 1 1 1 1 1 1 1 1 1
1 1 1 1 1 1 1 1 1 1 1 1 1 1 1 1 1 1 1 1 1 1 1 1 1 1 1 1 1 1 1 1 1 1
1 1 1 1 1 1 1 1 1 1 1 1 1 1 1 1 1 1 1 1 1 1 1 1 1 1 1 1 1 1 1 1 1 1
1 1 1 1 1 1 1 1;
#X coords 0 1 515 0 60 30 1 0 0;
#X restore 886 127 graph;
#N canvas 0 50 450 250 (subpatch) 0;
#X array \$0-custom 515 float 0;
#X coords 0 1 514 0 60 30 1 0 0;
#X restore 1066 152 graph;
#X obj 149 608 tabwrite~ \$0-win;
#X msg 600 325 down;
#X msg 617 350 up;
#X obj 11 378 t b b f, f 12;
#X obj 549 140 delay 50;
#X obj 549 165 t b b, f 11;
#X msg 602 110 0;
#X obj 549 190 f, f 5;
#X obj 623 190 delay 51;
#X obj 262 169 s \$0-params;
#X obj 262 54 list prepend in;
#X obj 404 54 list prepend out;
#X obj 262 94 list prepend fade;
#X obj 262 119 list trim;
#X obj 262 144 list prepend pass window;
#X obj 404 84 r \$0-fade-time;
#X obj 404 29 r \$0-fade-out;
#X obj 262 29 r \$0-fade-in;
#X obj 404 109 list prepend time;
#X obj 317 228 r \$0-load-window;
#X obj 729 265 s camomile;
#X msg 729 241 gui redraw;
#X obj 729 217 delay 10;
#X obj 432 479 t b b;
#X msg 432 566 openpanel;
#X obj 432 595 send camomile;
#X obj 464 532 s \$0-openpanel-num;
#X msg 464 508 2;
#X obj 232 440 receive openpanel;
#X obj 232 469 pack s f;
#X msg 232 498 \$2 \$1;
#X obj 285 411 r \$0-openpanel-num;
#X obj 232 527 route 2;
#X obj 317 626 s \$0-window-sel-r;
#X msg 317 602 5;
#X obj 317 578 delay 10;
#X obj 59 290 s \$0-path-window;
#X obj 317 204 r \$0-path-window-open;
#X obj 317 549 bang;
#X connect 0 0 21 0;
#X connect 1 0 84 0;
#X connect 2 0 4 1;
#X connect 2 0 26 1;
#X connect 3 0 2 0;
#X connect 4 0 20 0;
#X connect 5 0 4 0;
#X connect 5 0 6 0;
#X connect 6 0 8 0;
#X connect 7 0 4 0;
#X connect 7 0 8 0;
#X connect 7 0 82 0;
#X connect 9 0 10 0;
#X connect 10 1 7 0;
#X connect 12 0 13 0;
#X connect 14 0 31 0;
#X connect 15 0 16 0;
#X connect 15 1 17 0;
#X connect 15 2 18 0;
#X connect 15 3 47 0;
#X connect 15 4 48 0;
#X connect 15 5 19 0;
#X connect 16 0 22 0;
#X connect 16 0 26 0;
#X connect 16 0 36 0;
#X connect 17 0 22 0;
#X connect 17 0 26 0;
#X connect 17 0 36 0;
#X connect 18 0 22 0;
#X connect 18 0 26 0;
#X connect 18 0 36 0;
#X connect 19 0 22 0;
#X connect 19 0 26 0;
#X connect 19 0 36 0;
#X connect 20 0 1 0;
#X connect 21 0 11 0;
#X connect 21 0 12 0;
#X connect 22 0 23 0;
#X connect 24 0 46 0;
#X connect 25 0 24 0;
#X connect 26 0 25 0;
#X connect 27 0 30 0;
#X connect 28 0 34 0;
#X connect 29 0 49 0;
#X connect 30 0 38 0;
#X connect 31 0 50 0;
#X connect 31 1 53 1;
#X connect 32 0 46 0;
#X connect 32 1 33 0;
#X connect 33 0 28 1;
#X connect 34 0 24 0;
#X connect 36 0 37 0;
#X connect 37 0 35 0;
#X connect 38 0 28 0;
#X connect 39 0 38 1;
#X connect 47 0 22 0;
#X connect 47 0 26 0;
#X connect 47 0 36 0;
#X connect 48 0 22 0;
#X connect 48 0 26 0;
#X connect 48 0 36 0;
#X connect 49 0 32 0;
#X connect 49 1 27 0;
#X connect 49 2 30 1;
#X connect 49 2 34 1;
#X connect 49 2 39 0;
#X connect 50 0 51 0;
#X connect 51 0 53 0;
#X connect 51 0 32 0;
#X connect 51 0 68 0;
#X connect 51 1 54 0;
#X connect 52 0 50 1;
#X connect 53 0 15 0;
#X connect 54 0 52 0;
#X connect 56 0 58 0;
#X connect 57 0 58 0;
#X connect 58 0 59 0;
#X connect 59 0 60 0;
#X connect 60 0 55 0;
#X connect 61 0 64 0;
#X connect 62 0 57 0;
#X connect 63 0 56 0;
#X connect 64 0 58 0;
#X connect 65 0 5 0;
#X connect 65 0 69 0;
#X connect 67 0 66 0;
#X connect 68 0 67 0;
#X connect 69 0 70 0;
#X connect 69 1 73 0;
#X connect 70 0 71 0;
#X connect 73 0 72 0;
#X connect 74 0 75 0;
#X connect 75 0 76 0;
#X connect 76 0 78 0;
#X connect 77 0 75 1;
#X connect 78 0 7 0;
#X connect 80 0 79 0;
#X connect 81 0 80 0;
#X connect 83 0 7 0;
#X connect 84 0 81 0;
#X restore 12 585 pd window;
#N canvas 686 35 677 708 grain 0;
#N canvas 914 35 449 708 grain-duration 0;
#N canvas 685 35 336 689 unit-convert 0;
#X obj 62 162 spigot, f 7;
#X obj 141 162 spigot;
#X obj 62 12 inlet;
#X obj 62 112 f;
#X obj 108 12 inlet;
#X msg 108 112 1;
#X msg 180 112 1;
#X msg 140 62 0;
#X obj 62 242 list prepend pass duration;
#X obj 62 267 s \$0-params;
#X obj 192 152 r \$0-sample-rate;
#X obj 108 37 t f b;
#X obj 20 37 r \$0-reload;
#X obj 108 87 sel 0 1, f 21;
#X text 59 313 en caso de estar usando la unidad de ms \, la duración
de grano se convierte a samples y luego es enviada;
#X obj 192 177 * 0.001;
#X obj 62 202 *, f 19;
#X connect 0 0 16 0;
#X connect 1 0 8 0;
#X connect 2 0 3 0;
#X connect 3 0 0 0;
#X connect 3 0 1 0;
#X connect 4 0 11 0;
#X connect 5 0 0 1;
#X connect 6 0 1 1;
#X connect 7 0 0 1;
#X connect 7 0 1 1;
#X connect 8 0 9 0;
#X connect 10 0 15 0;
#X connect 11 0 13 0;
#X connect 11 1 7 0;
#X connect 12 0 3 0;
#X connect 13 0 5 0;
#X connect 13 1 6 0;
#X connect 15 0 16 1;
#X connect 16 0 8 0;
#X restore 42 135 pd unit-convert;
#N canvas 810 36 538 708 unit-display 0;
#X obj 191 379 f;
#X obj 191 289 spigot;
#X obj 256 289 spigot;
#X msg 349 219 0;
#X obj 11 49 inlet;
#X obj 191 219 f;
#X obj 191 49 inlet;
#X msg 230 219 1;
#X msg 295 219 1;
#X obj 191 429 s \$0-grain-duration-r;
#X msg 191 404 set \$1;
#X obj 191 249 change;
#X obj 191 149 t b f b, f 23;
#X obj 230 179 sel 1 2, f 19;
#X obj 191 99 + 1;
#X obj 191 124 change;
#X obj 316 274 r \$0-sample-rate;
#X text 58 49 duración de grano;
#X text 238 49 unidad (0/1 = ms/samples);
#X obj 452 249 symbol;
#X msg 432 219 ms;
#X msg 472 219 samp;
#X msg 452 274 label \$1;
#X obj 452 299 s \$0-grain-duration-unit-r;
#X text 251 522 los efectos de este subparche son sólo gráficos \,
se encarga de convertir el valor previo de la duración de grano al
cambiar de unidad para actualizar el número en la interfaz \, y también
cambia la label para que refleje el cambio de unidad;
#X obj 316 299 * 0.001;
#X obj 256 339 *, f 9;
#X obj 191 339 /;
#X connect 0 0 10 0;
#X connect 0 0 5 1;
#X connect 1 0 27 0;
#X connect 2 0 26 0;
#X connect 3 0 2 1;
#X connect 3 0 1 1;
#X connect 4 0 5 1;
#X connect 5 0 11 0;
#X connect 6 0 14 0;
#X connect 7 0 1 1;
#X connect 8 0 2 1;
#X connect 10 0 9 0;
#X connect 11 0 1 0;
#X connect 11 0 2 0;
#X connect 12 0 5 0;
#X connect 12 1 13 0;
#X connect 12 2 3 0;
#X connect 13 0 7 0;
#X connect 13 0 20 0;
#X connect 13 1 8 0;
#X connect 13 1 21 0;
#X connect 14 0 15 0;
#X connect 15 0 12 0;
#X connect 16 0 25 0;
#X connect 19 0 22 0;
#X connect 20 0 19 0;
#X connect 21 0 19 0;
#X connect 22 0 23 0;
#X connect 25 0 26 1;
#X connect 25 0 27 1;
#X connect 26 0 0 0;
#X connect 27 0 0 0;
#X restore 42 86 pd unit-display;
#X obj 12 33 r \$0-grain-duration;
#X obj 174 33 r \$0-grain-duration-unit;
#X obj 174 57 t b f;
#X obj 174 179 s camomile;
#X msg 174 155 gui redraw;
#X obj 174 131 delay 10;
#X connect 2 0 0 0;
#X connect 2 0 1 0;
#X connect 3 0 4 0;
#X connect 4 0 7 0;
#X connect 4 1 1 1;
#X connect 4 1 0 1;
#X connect 6 0 5 0;
#X connect 7 0 6 0;
#X restore 12 12 pd grain-duration;
#N canvas 914 35 1366 685 grain-rate 0;
#X obj 12 12 r \$0-grain-rate;
#X obj 174 12 r \$0-grain-rate-unit;
#N canvas 823 65 267 678 unit-convert 0;
#X obj 72 162 spigot, f 7;
#X obj 168 162 spigot;
#X obj 72 12 inlet;
#X obj 72 112 f;
#X obj 118 12 inlet;
#X msg 118 112 1;
#X msg 207 112 1;
#X msg 150 62 0;
#X obj 72 227 list prepend rate;
#X obj 72 252 s \$0-params;
#X obj 228 137 r \$0-sample-rate;
#X obj 118 87 sel 0 1, f 26;
#X obj 118 37 t f b;
#X obj 30 37 r \$0-reload;
#X obj 228 162 * 0.001;
#X obj 168 187 /, f 9;
#X connect 0 0 8 0;
#X connect 1 0 15 0;
#X connect 2 0 3 0;
#X connect 3 0 0 0;
#X connect 3 0 1 0;
#X connect 4 0 12 0;
#X connect 5 0 0 1;
#X connect 6 0 1 1;
#X connect 7 0 0 1;
#X connect 7 0 1 1;
#X connect 8 0 9 0;
#X connect 10 0 14 0;
#X connect 11 0 5 0;
#X connect 11 1 6 0;
#X connect 12 0 11 0;
#X connect 12 1 7 0;
#X connect 13 0 3 0;
#X connect 14 0 15 1;
#X connect 15 0 8 0;
#X restore 42 124 pd unit-convert;
#N canvas 3 35 1360 708 unit-display 0;
#X obj 231 352 f;
#X obj 231 262 spigot;
#X obj 292 262 spigot;
#X msg 382 212 0;
#X obj 12 12 inlet;
#X obj 231 212 f;
#X obj 231 12 inlet;
#X msg 270 212 1;
#X msg 331 212 1;
#X msg 231 382 set \$1;
#X obj 231 412 s \$0-grain-rate-r;
#X obj 231 132 t b f b, f 22;
#X obj 231 72 + 1;
#X obj 231 102 change;
#X obj 270 162 sel 1 2, f 18;
#X obj 352 247 r \$0-sample-rate;
#X text 67 550 los efectos de este subparche son sólo gráficos \,
se encarga de convertir el valor previo de frecuencia de encendido
automático de los granos al cambiar de unidad para actualizar el número
en la interfaz \, y también cambia la label para que refleje el cambio
de unidad;
#X text 56 12 frecuencia de encendido;
#X text 276 11 unidad de frecuencia (0/1 = ms/samples);
#X obj 488 232 symbol;
#X msg 472 202 ms;
#X msg 505 202 samp;
#X msg 488 257 label \$1;
#X obj 488 282 s \$0-grain-rate-unit-r;
#X obj 231 302 /;
#X obj 352 272 * 0.001;
#X obj 292 302 *, f 9;
#X connect 0 0 9 0;
#X connect 0 0 5 1;
#X connect 1 0 24 0;
#X connect 2 0 26 0;
#X connect 3 0 2 1;
#X connect 3 0 1 1;
#X connect 4 0 5 1;
#X connect 5 0 1 0;
#X connect 5 0 2 0;
#X connect 6 0 12 0;
#X connect 7 0 1 1;
#X connect 8 0 2 1;
#X connect 9 0 10 0;
#X connect 11 0 5 0;
#X connect 11 1 14 0;
#X connect 11 2 3 0;
#X connect 12 0 13 0;
#X connect 13 0 11 0;
#X connect 14 0 7 0;
#X connect 14 0 20 0;
#X connect 14 1 8 0;
#X connect 14 1 21 0;
#X connect 15 0 25 0;
#X connect 19 0 22 0;
#X connect 20 0 19 0;
#X connect 21 0 19 0;
#X connect 22 0 23 0;
#X connect 24 0 0 0;
#X connect 25 0 24 1;
#X connect 25 0 26 1;
#X connect 26 0 0 0;
#X restore 42 75 pd unit-display;
#X obj 12 303 list prepend rate metro;
#X obj 12 327 s \$0-params;
#X obj 117 274 r \$0-grain-auto;
#X obj 174 172 s camomile;
#X msg 174 148 gui redraw;
#X obj 174 124 delay 10;
#X obj 174 36 t b f;
#N canvas 109 43 1366 685 sync 0;
#X obj 51 314 inlet;
#X obj 12 353 spigot;
#X obj 115 12 receive playhead;
#X obj 12 41 route position;
#X msg 12 142 \$1;
#X obj 12 214 int;
#X obj 12 238 change;
#X obj 54 113 t b f;
#X obj 12 401 list prepend rate sync;
#X obj 12 425 s \$0-params;
#X obj 44 65 r \$0-grain-rate-denominator;
#X obj 54 89 r \$0-grain-rate-numerator;
#X obj 44 142 /;
#X obj 12 166 *, f 5;
#X obj 115 271 == 0;
#X obj 115 324 metro, f 8;
#X obj 115 147 route playing bpm;
#X obj 173 195 t b f, f 7;
#X msg 173 219 60000;
#X obj 173 243 /, f 7;
#X obj 115 295 change;
#X obj 173 171 change;
#X obj 173 296 *;
#X obj 173 267 t b f;
#X obj 124 195 t b f;
#X msg 124 219 1;
#X obj 124 243 /, f 5;
#X obj 12 377 bang;
#X connect 0 0 1 1;
#X connect 1 0 27 0;
#X connect 2 0 3 0;
#X connect 2 0 16 0;
#X connect 3 0 4 0;
#X connect 4 0 13 0;
#X connect 5 0 6 0;
#X connect 6 0 1 0;
#X connect 7 0 12 0;
#X connect 7 1 12 1;
#X connect 8 0 9 0;
#X connect 10 0 12 0;
#X connect 11 0 7 0;
#X connect 12 0 13 1;
#X connect 12 0 24 0;
#X connect 13 0 5 0;
#X connect 14 0 20 0;
#X connect 15 0 1 0;
#X connect 16 0 14 0;
#X connect 16 1 21 0;
#X connect 17 0 18 0;
#X connect 17 1 19 1;
#X connect 18 0 19 0;
#X connect 19 0 23 0;
#X connect 20 0 15 0;
#X connect 21 0 17 0;
#X connect 22 0 15 1;
#X connect 23 0 22 0;
#X connect 23 1 22 1;
#X connect 24 0 25 0;
#X connect 24 1 26 1;
#X connect 25 0 26 0;
#X connect 26 0 22 0;
#X connect 27 0 8 0;
#X restore 54 264 pd sync;
#X obj 12 211 r \$0-grain-rate-sync;
#X obj 12 235 change;
#X obj 12 274 == 0;
#X connect 0 0 2 0;
#X connect 0 0 3 0;
#X connect 1 0 10 0;
#X connect 4 0 5 0;
#X connect 6 0 4 0;
#X connect 8 0 7 0;
#X connect 9 0 8 0;
#X connect 10 0 9 0;
#X connect 10 1 3 1;
#X connect 10 1 2 1;
#X connect 12 0 13 0;
#X connect 13 0 11 0;
#X connect 13 0 14 0;
#X connect 14 0 4 0;
#X restore 145 12 pd grain-rate;
#X obj 306 78 r \$0-grain-dir;
#X obj 316 108 sel 0 1 2, f 23;
#X obj 401 323 s \$0-grain-dir-r;
#X msg 401 298 label \$1;
#X msg 316 138 forward;
#X msg 369 138 backwards;
#X msg 436 138 random;
#X obj 369 178 symbol;
#X obj 306 347 list prepend pass dir;
#X obj 306 372 s \$0-params;
#X obj 31 254 * 0.01;
#X obj 31 304 s \$0-params;
#X obj 31 384 s \$0-params;
#X obj 31 334 r \$0-stereo-chance;
#X obj 31 229 r \$0-stereo-amount;
#X obj 31 279 list prepend pass stereo amount;
#X obj 31 359 list prepend pass stereo chance;
#X obj 369 274 s camomile;
#X msg 369 250 gui redraw;
#X obj 369 202 t b a;
#X obj 369 226 delay 10;
#X connect 2 0 3 0;
#X connect 2 0 10 0;
#X connect 3 0 6 0;
#X connect 3 1 7 0;
#X connect 3 2 8 0;
#X connect 5 0 4 0;
#X connect 6 0 9 0;
#X connect 7 0 9 0;
#X connect 8 0 9 0;
#X connect 9 0 21 0;
#X connect 10 0 11 0;
#X connect 12 0 17 0;
#X connect 15 0 18 0;
#X connect 16 0 12 0;
#X connect 17 0 13 0;
#X connect 18 0 14 0;
#X connect 20 0 19 0;
#X connect 21 0 22 0;
#X connect 21 1 5 0;
#X connect 22 0 20 0;
#X restore 12 485 pd grain;
#N canvas 914 0 449 676 player 0;
#X obj 12 210 list prepend;
#X obj 12 235 list trim;
#X msg 70 180 manual;
#X msg 116 180 noteon;
#X obj 337 104 t b b;
#X msg 293 134 0;
#X msg 369 134 1;
#X obj 309 234 spigot, f 9;
#X obj 309 264 * 0.01;
#X obj 12 52 r \$0-playhead;
#X obj 293 44 r \$0-play;
#X obj 309 164 r \$0-speed;
#X obj 61 100 r \$0-playhead-reset;
#X obj 309 204 f;
#X obj 12 180 f;
#X obj 61 125 t b f;
#X obj 293 74 sel 0 1, f 13;
#X obj 93 150 sel 0 1;
#X obj 12 100 * 0.01;
#X obj 293 294 list prepend pass playhead speed;
#X obj 293 324 s \$0-params;
#X obj 12 260 list prepend pass playhead pos;
#X obj 12 285 s \$0-params;
#X obj 105 325 r \$0-pingpong;
#X obj 105 350 list prepend pingpong;
#X obj 105 375 s \$0-params;
#X obj 265 443 r \$0-loop-start;
#X obj 405 443 r \$0-loop-end;
#X obj 405 493 clip;
#X obj 277 373 loadbang;
#X msg 277 413 0;
#X msg 430 413 100;
#X obj 265 493 clip;
#X obj 265 543 list prepend start;
#X obj 405 543 list prepend end;
#X obj 265 568 list trim;
#X obj 405 568 list trim;
#X obj 265 608 list prepend loop;
#X obj 265 633 s \$0-params;
#X obj 265 518 * 0.01;
#X obj 405 518 * 0.01;
#X obj 12 76 clip 0 99.9999;
#X connect 0 0 1 0;
#X connect 1 0 21 0;
#X connect 2 0 0 1;
#X connect 3 0 0 1;
#X connect 4 0 13 0;
#X connect 4 1 6 0;
#X connect 5 0 7 1;
#X connect 5 0 19 0;
#X connect 6 0 7 1;
#X connect 7 0 8 0;
#X connect 8 0 19 0;
#X connect 9 0 41 0;
#X connect 10 0 16 0;
#X connect 11 0 13 0;
#X connect 12 0 15 0;
#X connect 13 0 7 0;
#X connect 14 0 0 0;
#X connect 15 0 14 0;
#X connect 15 1 17 0;
#X connect 16 0 5 0;
#X connect 16 1 4 0;
#X connect 17 0 2 0;
#X connect 17 1 3 0;
#X connect 18 0 14 0;
#X connect 19 0 20 0;
#X connect 21 0 22 0;
#X connect 23 0 24 0;
#X connect 24 0 25 0;
#X connect 26 0 32 0;
#X connect 26 0 28 1;
#X connect 27 0 28 0;
#X connect 27 0 32 2;
#X connect 28 0 40 0;
#X connect 29 0 30 0;
#X connect 29 0 31 0;
#X connect 30 0 32 1;
#X connect 31 0 28 2;
#X connect 32 0 39 0;
#X connect 33 0 35 0;
#X connect 34 0 36 0;
#X connect 35 0 37 0;
#X connect 36 0 37 0;
#X connect 37 0 38 0;
#X connect 39 0 33 0;
#X connect 40 0 34 0;
#X connect 41 0 18 0;
#X restore 12 535 pd player;
#N canvas 459 35 449 708 offset 0;
#N canvas 1027 35 336 651 offset-pitch 0;
#X obj 222 150 symbol;
#X obj 12 12 r \$0-offset-pitch;
#X obj 222 70 r \$0-offset-pitch-unit;
#N canvas 3 35 1360 708 unit-convert 0;
#X obj 22 162 spigot, f 7;
#X obj 118 162 spigot;
#X obj 22 12 inlet;
#X obj 22 112 f;
#X obj 68 12 inlet;
#X obj 68 62 list trim;
#X msg 68 112 1;
#X msg 157 112 1;
#X obj 68 37 t a b, f 11;
#X msg 142 62 0;
#X obj 68 87 route m c, f 26;
#X obj 22 242 s \$0-params;
#X obj 22 217 list prepend pass offset pitch;
#X obj 118 187 * 0.01;
#X connect 0 0 12 0;
#X connect 1 0 13 0;
#X connect 2 0 3 0;
#X connect 3 0 0 0;
#X connect 3 0 1 0;
#X connect 4 0 8 0;
#X connect 5 0 10 0;
#X connect 6 0 0 1;
#X connect 7 0 1 1;
#X connect 8 0 5 0;
#X connect 8 1 9 0;
#X connect 9 0 1 1;
#X connect 9 0 0 1;
#X connect 10 0 6 0;
#X connect 10 1 7 0;
#X connect 12 0 11 0;
#X connect 13 0 12 0;
#X restore 12 196 pd unit-convert;
#X msg 222 175 label \$1;
#X obj 222 95 sel 0 1, f 9;
#X obj 768 12 r \$0-offset-pitch-precision;
#X obj 485 12 r \$0-offset-pitch-chance;
#N canvas 3 35 1360 708 unit-display 0;
#X obj 81 271 f;
#X obj 81 206 spigot;
#X obj 146 206 spigot;
#X msg 239 141 0;
#X obj 12 12 inlet;
#X obj 81 141 f;
#X obj 81 12 inlet;
#X msg 120 141 1;
#X msg 185 141 1;
#X msg 81 296 set \$1;
#X obj 81 166 change;
#X obj 81 86 t b f b, f 23;
#X obj 120 116 sel 1 2, f 19;
#X obj 81 36 + 1;
#X obj 81 61 change;
#X obj 81 321 s \$0-offset-pitch-r;
#X obj 81 231 * 0.01;
#X obj 146 231 * 100;
#X connect 0 0 9 0;
#X connect 0 0 5 1;
#X connect 1 0 16 0;
#X connect 2 0 17 0;
#X connect 3 0 2 1;
#X connect 3 0 1 1;
#X connect 4 0 5 1;
#X connect 5 0 10 0;
#X connect 6 0 13 0;
#X connect 7 0 1 1;
#X connect 8 0 2 1;
#X connect 9 0 15 0;
#X connect 10 0 1 0;
#X connect 10 0 2 0;
#X connect 11 0 5 0;
#X connect 11 1 12 0;
#X connect 11 2 3 0;
#X connect 12 0 7 0;
#X connect 12 1 8 0;
#X connect 13 0 14 0;
#X connect 14 0 11 0;
#X connect 16 0 0 0;
#X connect 17 0 0 0;
#X restore 32 167 pd unit-display;
#X obj 222 200 s \$0-offset-pitch-unit-r;
#X msg 222 120 m;
#X msg 252 120 c;
#X obj 768 177 s \$0-params;
#X obj 768 137 list prepend pass offset pitch precis;
#X obj 485 137 list prepend pass offset pitch chance;
#X obj 768 37 t b f;
#X msg 768 62 100;
#X obj 768 87 -, f 5;
#X obj 768 112 * 0.01;
#X obj 86 420 s camomile;
#X msg 86 396 gui redraw;
#X obj 86 372 delay 10;
#X obj 86 348 bang;
#X connect 0 0 3 1;
#X connect 0 0 4 0;
#X connect 1 0 3 0;
#X connect 1 0 8 0;
#X connect 2 0 5 0;
#X connect 2 0 8 1;
#X connect 4 0 9 0;
#X connect 4 0 22 0;
#X connect 5 0 10 0;
#X connect 5 1 11 0;
#X connect 6 0 15 0;
#X connect 7 0 14 0;
#X connect 10 0 0 0;
#X connect 11 0 0 0;
#X connect 13 0 12 0;
#X connect 14 0 12 0;
#X connect 15 0 16 0;
#X connect 15 1 17 1;
#X connect 16 0 17 0;
#X connect 17 0 18 0;
#X connect 18 0 13 0;
#X connect 20 0 19 0;
#X connect 21 0 20 0;
#X connect 22 0 21 0;
#X restore 152 11 pd offset-pitch;
#N canvas 1027 35 336 632 offset-duration 0;
#X obj 243 155 symbol;
#X msg 243 125 ms;
#N canvas 1096 65 267 678 unit-convert 0;
#X obj 22 163 spigot, f 7;
#X obj 104 163 spigot, f 8;
#X obj 22 12 inlet;
#X obj 22 112 f;
#X obj 68 12 inlet;
#X obj 68 62 list trim;
#X msg 68 112 1;
#X msg 157 112 1;
#X obj 68 37 t a b, f 11;
#X msg 142 62 0;
#X obj 68 87 route ms sp, f 26;
#X obj 22 228 list prepend pass offset duration;
#X obj 22 253 s \$0-params;
#X obj 173 138 r \$0-sample-rate;
#X obj 173 163 * 0.001;
#X obj 22 188 *, f 22;
#X connect 0 0 15 0;
#X connect 1 0 11 0;
#X connect 2 0 3 0;
#X connect 3 0 0 0;
#X connect 3 0 1 0;
#X connect 4 0 8 0;
#X connect 5 0 10 0;
#X connect 6 0 0 1;
#X connect 7 0 1 1;
#X connect 8 0 5 0;
#X connect 8 1 9 0;
#X connect 9 0 1 1;
#X connect 9 0 0 1;
#X connect 10 0 6 0;
#X connect 10 1 7 0;
#X connect 11 0 12 0;
#X connect 13 0 14 0;
#X connect 14 0 15 1;
#X connect 15 0 11 0;
#X restore 12 186 pd unit-convert;
#X obj 12 12 r \$0-offset-duration;
#X obj 243 70 r \$0-offset-duration-unit;
#X msg 243 180 label \$1;
#X obj 243 95 sel 0 1;
#X obj 768 12 r \$0-offset-duration-precision;
#X obj 464 12 r \$0-offset-duration-chance;
#N canvas 1096 65 267 659 unit-display 0;
#X obj 71 312 f;
#X obj 71 242 spigot;
#X obj 136 242 spigot;
#X msg 229 167 0;
#X obj 12 12 inlet;
#X obj 71 167 f;
#X obj 71 12 inlet;
#X msg 110 167 1;
#X msg 175 167 1;
#X msg 71 337 set \$1;
#X obj 71 192 change;
#X obj 71 112 t b f b, f 23;
#X obj 110 142 sel 1 2, f 19;
#X obj 71 62 + 1;
#X obj 71 87 change;
#X obj 71 362 s \$0-offset-duration-r;
#X obj 189 217 r \$0-sample-rate;
#X obj 71 37 spigot;
#X obj 189 242 * 0.001;
#X obj 136 272 *, f 8;
#X obj 71 272 /;
#X connect 0 0 9 0;
#X connect 0 0 5 1;
#X connect 1 0 20 0;
#X connect 2 0 19 0;
#X connect 3 0 2 1;
#X connect 3 0 1 1;
#X connect 4 0 5 1;
#X connect 5 0 10 0;
#X connect 6 0 17 0;
#X connect 7 0 1 1;
#X connect 8 0 2 1;
#X connect 9 0 15 0;
#X connect 10 0 1 0;
#X connect 10 0 2 0;
#X connect 11 0 5 0;
#X connect 11 1 12 0;
#X connect 11 2 3 0;
#X connect 12 0 7 0;
#X connect 12 1 8 0;
#X connect 13 0 14 0;
#X connect 14 0 11 0;
#X connect 16 0 17 1;
#X connect 16 0 18 0;
#X connect 17 0 13 0;
#X connect 18 0 19 1;
#X connect 18 0 20 1;
#X connect 19 0 0 0;
#X connect 20 0 0 0;
#X restore 32 157 pd unit-display;
#X obj 243 205 s \$0-offset-duration-unit-r;
#X msg 268 125 sp;
#X obj 768 177 s \$0-params;
#X obj 768 137 list prepend pass offset duration precis;
#X obj 464 137 list prepend pass offset duration chance;
#X obj 768 37 t b f;
#X msg 768 62 100;
#X obj 768 87 -, f 5;
#X obj 768 112 * 0.01;
#X obj 86 420 s camomile;
#X msg 86 396 gui redraw;
#X obj 86 372 delay 10;
#X obj 86 348 bang;
#X connect 0 0 2 1;
#X connect 0 0 5 0;
#X connect 1 0 0 0;
#X connect 3 0 2 0;
#X connect 3 0 9 0;
#X connect 4 0 6 0;
#X connect 4 0 9 1;
#X connect 5 0 10 0;
#X connect 5 0 22 0;
#X connect 6 0 1 0;
#X connect 6 1 11 0;
#X connect 7 0 15 0;
#X connect 8 0 14 0;
#X connect 11 0 0 0;
#X connect 13 0 12 0;
#X connect 14 0 12 0;
#X connect 15 0 16 0;
#X connect 15 1 17 1;
#X connect 16 0 17 0;
#X connect 17 0 18 0;
#X connect 18 0 13 0;
#X connect 20 0 19 0;
#X connect 21 0 20 0;
#X connect 22 0 21 0;
#X restore 271 11 pd offset-duration;
#N canvas 685 35 336 651 offset-playhead 0;
#X obj 215 155 symbol;
#X msg 215 125 ms;
#N canvas 823 65 267 678 unit-convert 0;
#X obj 22 166 spigot, f 7;
#X obj 118 166 spigot;
#X obj 22 12 inlet;
#X obj 22 116 f;
#X obj 68 12 inlet;
#X obj 68 66 list trim;
#X msg 68 116 1;
#X msg 157 116 1;
#X obj 68 41 t a b, f 11;
#X msg 142 66 0;
#X obj 68 91 route ms sp, f 26;
#X obj 22 231 list prepend pass offset playhead;
#X obj 22 256 s \$0-params;
#X obj 173 141 r \$0-sample-rate;
#X obj 22 191 *, f 22;
#X obj 173 166 * 0.001;
#X connect 0 0 14 0;
#X connect 1 0 11 0;
#X connect 2 0 3 0;
#X connect 3 0 0 0;
#X connect 3 0 1 0;
#X connect 4 0 8 0;
#X connect 5 0 10 0;
#X connect 6 0 0 1;
#X connect 7 0 1 1;
#X connect 8 0 5 0;
#X connect 8 1 9 0;
#X connect 9 0 1 1;
#X connect 9 0 0 1;
#X connect 10 0 6 0;
#X connect 10 1 7 0;
#X connect 11 0 12 0;
#X connect 13 0 15 0;
#X connect 14 0 11 0;
#X connect 15 0 14 1;
#X restore 12 215 pd unit-convert;
#X msg 215 180 label \$1;
#X obj 215 95 sel 0 1;
#X obj 215 70 r \$0-offset-playhead-unit;
#X obj 768 12 r \$0-offset-playhead-precision;
#X obj 464 12 r \$0-offset-playhead-chance;
#X obj 12 12 r \$0-offset-playhead;
#X obj 215 205 s \$0-offset-playhead-unit-r;
#N canvas 823 65 267 678 unit-display 0;
#X obj 71 316 f;
#X obj 71 236 spigot;
#X obj 136 236 spigot;
#X msg 229 167 0;
#X obj 12 12 inlet;
#X obj 71 167 f;
#X obj 71 12 inlet;
#X msg 110 167 1;
#X msg 175 167 1;
#X msg 71 341 set \$1;
#X obj 71 192 change;
#X obj 71 112 t b f b, f 23;
#X obj 110 142 sel 1 2, f 19;
#X obj 71 62 + 1;
#X obj 71 87 change;
#X obj 71 366 s \$0-offset-playhead-r;
#X obj 196 211 r \$0-sample-rate;
#X obj 71 37 spigot;
#X obj 196 236 * 0.001;
#X obj 136 266 *, f 9;
#X obj 71 266 /;
#X connect 0 0 9 0;
#X connect 0 0 5 1;
#X connect 1 0 20 0;
#X connect 2 0 19 0;
#X connect 3 0 2 1;
#X connect 3 0 1 1;
#X connect 4 0 5 1;
#X connect 5 0 10 0;
#X connect 6 0 17 0;
#X connect 7 0 1 1;
#X connect 8 0 2 1;
#X connect 9 0 15 0;
#X connect 10 0 1 0;
#X connect 10 0 2 0;
#X connect 11 0 5 0;
#X connect 11 1 12 0;
#X connect 11 2 3 0;
#X connect 12 0 7 0;
#X connect 12 1 8 0;
#X connect 13 0 14 0;
#X connect 14 0 11 0;
#X connect 16 0 17 1;
#X connect 16 0 18 0;
#X connect 17 0 13 0;
#X connect 18 0 19 1;
#X connect 18 0 20 1;
#X connect 19 0 0 0;
#X connect 20 0 0 0;
#X restore 32 186 pd unit-display;
#X msg 240 125 sp;
#X obj 768 137 list prepend pass offset playhead precis;
#X obj 768 177 s \$0-params;
#X obj 464 137 list prepend pass offset playhead chance;
#X obj 768 37 t b f;
#X msg 768 62 100;
#X obj 768 87 -, f 5;
#X obj 768 112 * 0.01;
#X obj 86 420 s camomile;
#X msg 86 396 gui redraw;
#X obj 86 372 delay 10;
#X obj 86 348 bang;
#X connect 0 0 2 1;
#X connect 0 0 3 0;
#X connect 1 0 0 0;
#X connect 3 0 9 0;
#X connect 3 0 22 0;
#X connect 4 0 1 0;
#X connect 4 1 11 0;
#X connect 5 0 4 0;
#X connect 5 0 10 1;
#X connect 6 0 15 0;
#X connect 7 0 14 0;
#X connect 8 0 2 0;
#X connect 8 0 10 0;
#X connect 11 0 0 0;
#X connect 12 0 13 0;
#X connect 14 0 13 0;
#X connect 15 0 16 0;
#X connect 15 1 17 1;
#X connect 16 0 17 0;
#X connect 17 0 18 0;
#X connect 18 0 12 0;
#X connect 20 0 19 0;
#X connect 21 0 20 0;
#X connect 22 0 21 0;
#X restore 12 11 pd offset-playhead;
#X restore 12 510 pd offset;
#X obj 12 239 *~;
#N canvas 686 35 677 708 out 0;
#X msg 12 114 \$1 1;
#X obj 12 167 outlet~;
#X obj 12 90 dbtorms;
#X obj 12 138 line~;
#X obj 12 37 r \$0-out;
#X obj 12 66 + 100;
#X connect 0 0 3 0;
#X connect 2 0 0 0;
#X connect 3 0 1 0;
#X connect 4 0 5 0;
#X connect 5 0 2 0;
#X restore 230 200 pd out gain;
#X obj 212 239 *~;
#N canvas 914 35 449 708 midi-input 0;
#X obj 93 362 outlet;
#X obj 93 163 - 1;
#X obj 93 193 pack 0 0 0;
#X obj 26 63 inlet;
#X obj 258 217 spigot;
#X obj 177 297 list prepend;
#X obj 177 322 list trim;
#X msg 422 263 all;
#X obj 422 167 sel 0 1, f 10;
#X msg 177 267 bend \$1;
#X obj 12 138 poly 1 1, f 10;
#X obj 12 163 - 1;
#X obj 12 193 pack 0 0 0;
#X obj 93 322 spigot;
#X obj 12 322 spigot;
#X obj 258 267 spigot;
#X msg 297 247 1;
#X msg 322 247 0;
#X obj 422 207 t b b;
#N canvas 685 35 336 689 polystuff 0;
#X obj 12 96 sel 0 1, f 9;
#X obj 12 66 t f b, f 11;
#X msg 86 96 0;
#X obj 12 161 outlet;
#X obj 86 161 outlet;
#X obj 12 41 r \$0-poly;
#X msg 12 121 1;
#X msg 42 121 1;
#X connect 0 0 6 0;
#X connect 0 1 7 0;
#X connect 1 0 0 0;
#X connect 1 1 2 0;
#X connect 2 0 4 0;
#X connect 2 0 3 0;
#X connect 5 0 1 0;
#X connect 6 0 3 0;
#X connect 7 0 4 0;
#X restore 51 297 pd polystuff;
#X text 645 86 cada mensaje noteoff se envía a la voz más antigua
que esté ocupada con sus respectiva nota;
#X text 645 11 cada mensaje noteon se envía a la siguiente voz disponible
en la polifonía \, o si voice_steal esta activado la voz más antigua
en caso de no haber voces disponibles;
#X text 303 217 filtrar noteoff;
#X msg 475 327 label \$1;
#X obj 475 302 symbol;
#X obj 26 88 route bend;
#X obj 160 13 r \$0-steal;
#X text 632 276 los valores de pitch bend se envían a las 16 voces
o a la voz más nueva en la polifonía \, dependiendo si el bend es
global o last_note respectivamente;
#X msg 475 247 bend:_global;
#X msg 485 272 bend:_last;
#X obj 223 138 r \$0-bendRange;
#X obj 223 163 * 2;
#X obj 475 352 s \$0-bendMode-r;
#X obj 422 143 r \$0-bendMode;
#X obj 195 38 loadbang;
#X obj 195 63 t b b;
#X msg 195 88 1;
#X msg 227 88 16383;
#X obj 195 113 /;
#X obj 177 138 *;
#X obj 177 163 - 0.5;
#X obj 177 193 *, f 7;
#X obj 565 201 s camomile;
#X msg 565 177 gui redraw;
#X obj 565 153 delay 10;
#X obj 93 138 poly 5 1, f 10;
#X connect 1 0 2 0;
#X connect 1 0 4 0;
#X connect 2 0 13 0;
#X connect 3 0 25 0;
#X connect 4 0 15 0;
#X connect 5 0 6 0;
#X connect 6 0 0 0;
#X connect 7 0 5 1;
#X connect 8 0 18 0;
#X connect 8 1 16 0;
#X connect 8 1 29 0;
#X connect 9 0 5 0;
#X connect 10 0 11 0;
#X connect 10 1 12 1;
#X connect 10 2 12 2;
#X connect 11 0 12 0;
#X connect 12 0 14 0;
#X connect 13 0 0 0;
#X connect 14 0 0 0;
#X connect 15 0 5 1;
#X connect 16 0 15 1;
#X connect 17 0 15 1;
#X connect 18 0 7 0;
#X connect 18 0 28 0;
#X connect 18 1 17 0;
#X connect 19 0 14 1;
#X connect 19 1 13 1;
#X connect 23 0 32 0;
#X connect 24 0 23 0;
#X connect 25 0 39 0;
#X connect 25 1 10 0;
#X connect 25 1 45 0;
#X connect 26 0 45 1;
#X connect 28 0 24 0;
#X connect 29 0 24 0;
#X connect 30 0 31 0;
#X connect 31 0 41 1;
#X connect 33 0 8 0;
#X connect 33 0 44 0;
#X connect 34 0 35 0;
#X connect 35 0 36 0;
#X connect 35 1 37 0;
#X connect 36 0 38 0;
#X connect 37 0 38 1;
#X connect 38 0 39 1;
#X connect 39 0 40 0;
#X connect 40 0 41 0;
#X connect 41 0 9 0;
#X connect 43 0 42 0;
#X connect 44 0 43 0;
#X connect 45 0 1 0;
#X connect 45 1 2 1;
#X connect 45 2 2 2;
#X connect 45 2 4 1;
#X restore 12 165 pd midi-input;
#N canvas 686 35 677 708 voices 0;
#X msg 12 122 1;
#X msg 47 122 0;
#X obj 12 92 delay 10;
#X obj 112 107 symbol;
#X msg 112 132 label \$1;
#X obj 112 52 sel 0 1, f 12;
#X obj 12 12 r \$0-poly;
#X msg 112 77 mono;
#X msg 152 77 poly;
#X obj 112 157 s \$0-poly-r;
#X obj 12 322 outlet;
#X obj 12 187 list prepend power;
#X obj 12 292 spigot;
#X obj 51 217 loadbang;
#X obj 51 242 delay 10;
#X msg 51 267 1;
#X obj 198 317 s camomile;
#X msg 198 293 gui redraw;
#X obj 12 52 bang;
#X connect 0 0 11 0;
#X connect 1 0 11 0;
#X connect 2 0 0 0;
#X connect 2 0 17 0;
#X connect 3 0 4 0;
#X connect 4 0 9 0;
#X connect 5 0 7 0;
#X connect 5 1 8 0;
#X connect 6 0 5 0;
#X connect 6 0 18 0;
#X connect 7 0 3 0;
#X connect 8 0 3 0;
#X connect 11 0 12 0;
#X connect 12 0 10 0;
#X connect 13 0 14 0;
#X connect 14 0 15 0;
#X connect 15 0 12 1;
#X connect 17 0 16 0;
#X connect 18 0 2 0;
#X connect 18 0 1 0;
#X restore 126 117 pd voices;
#X f 11;
#X obj 310 8 inlet;
#N canvas 914 35 1366 685 route-inlet-messages 0;
#X obj 12 12 inlet;
#N canvas 914 35 1366 685 state 0;
#X obj 66 30 inlet;
#X obj 66 60 t b b;
#X msg 98 90 set;
#X obj 66 220 s \$0-state;
#N canvas 686 35 677 708 grain 0;
#X obj 54 60 f;
#X obj 54 7 inlet;
#X obj 54 295 outlet;
#X obj 72 36 r \$0-grain-duration-unit;
#X obj 91 90 r \$0-grain-duration;
#X obj 128 120 r \$0-grain-rate-unit;
#X obj 165 150 r \$0-grain-rate;
#X obj 238 90 r \$0-grain-auto;
#X obj 54 180 pack f f f f f f, f 27;
#X obj 282 120 r \$0-grain-dir;
#X msg 54 210 add2 grain duration unit \$1 \, addcomma \, add2 grain
duration \$2 \, addcomma \, add2 grain rate unit \$3 \, addcomma \,
add2 grain rate \$4 \, addcomma \, add2 grain auto \$5 \, addcomma
\, add2 grain dir \$6 \, addcomma;
#X connect 0 0 8 0;
#X connect 1 0 0 0;
#X connect 3 0 0 1;
#X connect 4 0 8 1;
#X connect 5 0 8 2;
#X connect 6 0 8 3;
#X connect 7 0 8 4;
#X connect 8 0 10 0;
#X connect 9 0 8 5;
#X connect 10 0 2 0;
#X restore 469 150 pd grain;
#N canvas 686 35 677 708 sample 0;
#X obj 54 67 f;
#X obj 54 7 inlet;
#X obj 54 350 outlet;
#X obj 72 37 r \$0-play;
#X obj 83 97 r \$0-playhead;
#X obj 112 127 r \$0-playhead-reset;
#X obj 142 156 r \$0-speed;
#X obj 171 186 r \$0-sample-note;
#X obj 299 186 r \$0-sample-path;
#X obj 54 215 pack f f f f f f f f s, f 34;
#X obj 259 156 r \$0-pingpong;
#X obj 200 97 r \$0-loop-start;
#X obj 259 127 r \$0-loop-end;
#X msg 54 245 add2 sample play \$1 \, addcomma \, add2 sample playhead
\$2 \, addcomma \, add2 sample playhead reset \$3 \, addcomma \, add2
sample speed \$4 \, addcomma \, add2 sample note \$5 \, addcomma \,
add2 sample loop start \$6 \, addcomma \, add2 sample loop end \$7
\, addcomma \, add2 sample pingpong \$8 \, addcomma \, add2 load sample
\$9 \, addcomma;
#X connect 0 0 9 0;
#X connect 1 0 0 0;
#X connect 3 0 0 1;
#X connect 4 0 9 1;
#X connect 5 0 9 2;
#X connect 6 0 9 3;
#X connect 7 0 9 4;
#X connect 8 0 9 8;
#X connect 9 0 13 0;
#X connect 10 0 9 7;
#X connect 11 0 9 5;
#X connect 12 0 9 6;
#X connect 13 0 2 0;
#X restore 401 180 pd sample;
#N canvas 459 35 449 708 window 0;
#X obj 54 60 f;
#X obj 54 7 inlet;
#X obj 54 270 outlet;
#X obj 72 36 r \$0-window-sel;
#X obj 175 90 r \$0-window-path;
#X obj 77 90 r \$0-fade-in;
#X obj 54 180 pack f f f f s;
#X msg 54 210 add2 window shape \$1 \, addcomma \, add2 window fade
in \$2 \, addcomma \, add2 window fade out \$3 \, addcomma \, add2
window fade time \$4 \, addcomma \, add2 load window \$5 \, addcomma
;
#X obj 125 150 r \$0-fade-time;
#X obj 101 120 r \$0-fade-out;
#X connect 0 0 6 0;
#X connect 1 0 0 0;
#X connect 3 0 0 1;
#X connect 4 0 6 4;
#X connect 5 0 6 1;
#X connect 6 0 7 0;
#X connect 7 0 2 0;
#X connect 8 0 6 3;
#X connect 9 0 6 2;
#X restore 334 150 pd window;
#N canvas 686 35 677 708 offset 0;
#X obj 54 7 inlet;
#X obj 100 152 outlet;
#X obj 54 36 t b b b;
#N canvas 709 299 669 300 playhead 0;
#X obj 54 60 f;
#X obj 54 7 inlet;
#X obj 54 266 outlet;
#X obj 54 170 pack f f f f, f 20;
#X obj 72 36 r \$0-offset-playhead-unit;
#X obj 99 83 r \$0-offset-playhead;
#X obj 145 112 r \$0-offset-playhead-chance;
#X obj 191 141 r \$0-offset-playhead-precision;
#X msg 54 199 add2 offset playhead unit \$1 \, addcomma \, add2 offset
playhead \$2 \, addcomma \, add2 offset playhead chance \$3 \, addcomma
\, add2 offset playhead precision \$4 \, addcomma;
#X connect 0 0 3 0;
#X connect 1 0 0 0;
#X connect 3 0 8 0;
#X connect 4 0 0 1;
#X connect 5 0 3 1;
#X connect 6 0 3 2;
#X connect 7 0 3 3;
#X connect 8 0 2 0;
#X restore 100 65 pd playhead;
#N canvas 709 299 669 300 pitch 0;
#X obj 54 60 f;
#X obj 54 7 inlet;
#X obj 54 266 outlet;
#X obj 54 170 pack f f f f, f 20;
#X obj 72 36 r \$0-offset-pitch-unit;
#X obj 99 83 r \$0-offset-pitch;
#X obj 145 112 r \$0-offset-pitch-chance;
#X obj 191 141 r \$0-offset-pitch-precision;
#X msg 54 199 add2 offset pitch unit \$1 \, addcomma \, add2 offset
pitch \$2 \, addcomma \, add2 offset pitch chance \$3 \, addcomma \,
add2 offset pitch precision \$4 \, addcomma;
#X connect 0 0 3 0;
#X connect 1 0 0 0;
#X connect 3 0 8 0;
#X connect 4 0 0 1;
#X connect 5 0 3 1;
#X connect 6 0 3 2;
#X connect 7 0 3 3;
#X connect 8 0 2 0;
#X restore 77 94 pd pitch;
#N canvas 709 299 669 300 duration 0;
#X obj 54 60 f;
#X obj 54 7 inlet;
#X obj 54 266 outlet;
#X obj 54 170 pack f f f f, f 20;
#X obj 72 36 r \$0-offset-duration-unit;
#X obj 99 83 r \$0-offset-duration;
#X obj 145 112 r \$0-offset-duration-chance;
#X obj 191 141 r \$0-offset-duration-precision;
#X msg 54 199 add2 offset duration unit \$1 \, addcomma \, add2 offset
duration \$2 \, addcomma \, add2 offset duration chance \$3 \, addcomma
\, add2 offset duration precision \$4 \, addcomma;
#X connect 0 0 3 0;
#X connect 1 0 0 0;
#X connect 3 0 8 0;
#X connect 4 0 0 1;
#X connect 5 0 3 1;
#X connect 6 0 3 2;
#X connect 7 0 3 3;
#X connect 8 0 2 0;
#X restore 54 123 pd duration;
#X connect 0 0 2 0;
#X connect 2 0 5 0;
#X connect 2 1 4 0;
#X connect 2 2 3 0;
#X connect 3 0 1 0;
#X connect 4 0 1 0;
#X connect 5 0 1 0;
#X restore 267 180 pd offset;
#N canvas 1027 35 336 708 adsr 0;
#X obj 54 60 f;
#X obj 54 7 inlet;
#X obj 54 252 outlet;
#X obj 72 36 r \$0-att;
#X obj 99 83 r \$0-dec;
#X obj 145 112 r \$0-sus;
#X obj 191 141 r \$0-rel;
#X obj 54 170 pack f f f f, f 20;
#X msg 54 199 add2 att \$1 \, addcomma \, add2 dec \$2 \, addcomma
\, add2 sus \$3 \, addcomma \, add2 rel \$4 \, addcomma;
#X connect 0 0 7 0;
#X connect 1 0 0 0;
#X connect 3 0 0 1;
#X connect 4 0 7 1;
#X connect 5 0 7 2;
#X connect 6 0 7 3;
#X connect 7 0 8 0;
#X connect 8 0 2 0;
#X restore 133 180 pd adsr;
#N canvas 1027 35 336 689 global 0;
#X obj 54 60 f;
#X obj 54 7 inlet;
#X obj 54 258 outlet;
#X obj 72 36 r \$0-poly;
#X obj 90 89 r \$0-legato;
#X obj 198 89 r \$0-out;
#X obj 126 118 r \$0-bendMode;
#X obj 162 147 r \$0-bendRange;
#X obj 54 176 pack f f f f f, f 21;
#X msg 54 205 add2 poly \$1 \, addcomma \, add2 legato \$2 \, addcomma
\, add2 bendMode \$3 \, addcomma \, add2 bendRange \$4 \, addcomma
\, add2 out \$5;
#X connect 0 0 8 0;
#X connect 1 0 0 0;
#X connect 3 0 0 1;
#X connect 4 0 8 1;
#X connect 5 0 8 4;
#X connect 6 0 8 2;
#X connect 7 0 8 3;
#X connect 8 0 9 0;
#X connect 9 0 2 0;
#X restore 66 150 pd global;
#N canvas 686 35 677 708 stereo 0;
#X obj 54 67 f;
#X obj 54 7 inlet;
#X obj 54 187 outlet;
#X obj 72 37 r \$0-stereo-amount;
#X msg 54 157 add2 stereo \$1 \, addcomma \, add2 stereo chance \$2
\, addcomma;
#X obj 107 97 r \$0-stereo-chance;
#X obj 54 127 pack f f;
#X connect 0 0 6 0;
#X connect 1 0 0 0;
#X connect 3 0 0 1;
#X connect 4 0 2 0;
#X connect 5 0 6 1;
#X connect 6 0 4 0;
#X restore 200 150 pd stereo;
#X obj 66 120 t b b b b b b b, f 58;
#X connect 0 0 1 0;
#X connect 1 0 11 0;
#X connect 1 1 2 0;
#X connect 2 0 3 0;
#X connect 4 0 3 0;
#X connect 5 0 3 0;
#X connect 6 0 3 0;
#X connect 7 0 3 0;
#X connect 8 0 3 0;
#X connect 9 0 3 0;
#X connect 10 0 3 0;
#X connect 11 0 9 0;
#X connect 11 1 8 0;
#X connect 11 2 10 0;
#X connect 11 3 7 0;
#X connect 11 4 6 0;
#X connect 11 5 5 0;
#X connect 11 6 4 0;
#X restore 914 447 pd state;
#X obj 317 199 route att dec sus rel, f 45;
#N canvas 914 35 449 708 grain 0;
#X obj 12 30 inlet;
#X obj 205 440 s \$0-error;
#X msg 267 100 0;
#X obj 232 70 loadbang;
#X obj 108 190 != 0;
#X msg 232 100 1;
#X obj 118 240 s \$0-grain-auto-r;
#X msg 118 215 set \$1;
#X obj 108 265 s \$0-grain-auto;
#X obj 12 70 route duration rate auto dir;
#X msg 166 330 set \$1;
#X obj 166 355 s \$0-grain-dir-r;
#X obj 156 380 s \$0-grain-dir;
#X obj 156 305 clip 0 2;
#N canvas 1027 35 336 708 duration 0;
#X obj 11 30 inlet;
#X obj 120 315 s \$0-error;
#X obj 11 60 route float unit;
#X obj 21 125 s \$0-grain-duration-r;
#X obj 75 230 s \$0-grain-duration-unit-r;
#X obj 65 180 != 0;
#X msg 21 100 set \$1;
#X obj 11 150 s \$0-grain-duration;
#X msg 75 205 set \$1;
#X obj 65 255 s \$0-grain-duration-unit;
#X obj 147 56 t b b;
#X msg 179 85 0;
#X msg 147 85 300;
#X obj 147 27 loadbang;
#X connect 0 0 2 0;
#X connect 2 0 6 0;
#X connect 2 0 7 0;
#X connect 2 1 5 0;
#X connect 2 2 1 0;
#X connect 5 0 8 0;
#X connect 5 0 9 0;
#X connect 6 0 3 0;
#X connect 8 0 4 0;
#X connect 10 0 12 0;
#X connect 10 1 11 0;
#X connect 11 0 4 0;
#X connect 12 0 3 0;
#X connect 13 0 10 0;
#X restore 12 110 pd duration;
#N canvas 1027 35 336 708 rate 0;
#X obj 14 19 inlet;
#X obj 123 304 s \$0-error;
#X obj 24 114 s \$0-grain-rate-r;
#X obj 78 219 s \$0-grain-rate-unit-r;
#X obj 14 49 route float unit;
#X obj 68 169 != 0;
#X msg 24 89 set \$1;
#X obj 14 139 s \$0-grain-rate;
#X msg 78 194 set \$1;
#X obj 68 244 s \$0-grain-rate-unit;
#X obj 147 56 t b b;
#X msg 179 85 0;
#X obj 147 27 loadbang;
#X msg 147 85 100;
#X connect 0 0 4 0;
#X connect 4 0 6 0;
#X connect 4 0 7 0;
#X connect 4 1 5 0;
#X connect 4 2 1 0;
#X connect 5 0 8 0;
#X connect 5 0 9 0;
#X connect 6 0 2 0;
#X connect 8 0 3 0;
#X connect 10 0 13 0;
#X connect 10 1 11 0;
#X connect 11 0 3 0;
#X connect 12 0 10 0;
#X connect 13 0 2 0;
#X restore 60 150 pd rate;
#X connect 0 0 9 0;
#X connect 2 0 11 0;
#X connect 3 0 5 0;
#X connect 3 0 2 0;
#X connect 4 0 7 0;
#X connect 4 0 8 0;
#X connect 5 0 6 0;
#X connect 7 0 6 0;
#X connect 9 0 14 0;
#X connect 9 1 15 0;
#X connect 9 2 4 0;
#X connect 9 3 13 0;
#X connect 9 4 1 0;
#X connect 10 0 11 0;
#X connect 13 0 10 0;
#X connect 13 0 12 0;
#X restore 12 100 pd grain;
#X obj 30 585 r \$0-error;
#X obj 968 472 s \$0-error;
#N canvas 914 35 449 708 sample 0;
#X obj 12 11 inlet;
#X obj 317 331 s \$0-error;
#X msg 344 76 0;
#X obj 22 141 s \$0-play-r;
#X obj 123 116 s \$0-speed-r;
#X obj 174 246 s \$0-sample-note-r;
#X msg 369 76 48;
#X obj 344 47 loadbang;
#X obj 12 91 != 0;
#X msg 22 116 set \$1;
#X obj 12 166 s \$0-play;
#X msg 123 91 set \$1;
#X msg 174 221 set \$1;
#X obj 164 271 s \$0-sample-note;
#X msg 225 116 set \$1;
#X obj 225 141 s \$0-pingpong-r;
#X obj 215 166 s \$0-pingpong;
#X obj 113 141 s \$0-speed;
#X obj 215 91 != 0;
#X obj 12 51 route play playhead speed note pingpong loop;
#N canvas 1027 35 336 708 loop 0;
#X msg 72 216 set \$1;
#X msg 123 296 set \$1;
#X obj 62 156 inlet;
#X obj 62 186 route start end;
#X obj 164 396 s \$0-error;
#X obj 62 266 s \$0-loop-start;
#X obj 72 241 s \$0-loop-start-r;
#X obj 123 321 s \$0-loop-end-r;
#X obj 113 346 s \$0-loop-end;
#X obj 191 156 loadbang;
#X msg 191 186 0;
#X msg 226 186 100;
#X connect 0 0 6 0;
#X connect 1 0 7 0;
#X connect 2 0 3 0;
#X connect 3 0 0 0;
#X connect 3 0 5 0;
#X connect 3 1 1 0;
#X connect 3 1 8 0;
#X connect 3 2 4 0;
#X connect 9 0 10 0;
#X connect 9 0 11 0;
#X connect 10 0 6 0;
#X connect 11 0 7 0;
#X restore 266 206 pd loop;
#N canvas 1027 35 336 708 playhead 0;
#X obj 15 33 inlet;
#X obj 131 303 s \$0-error;
#X obj 25 113 s \$0-playhead-r;
#X obj 83 218 s \$0-playhead-reset-r;
#X obj 15 63 route float reset;
#X obj 73 168 != 0;
#X msg 25 88 set \$1;
#X obj 15 138 s \$0-playhead;
#X msg 83 193 set \$1;
#X obj 73 243 s \$0-playhead-reset;
#X obj 158 58 loadbang;
#X msg 158 83 0;
#X connect 0 0 4 0;
#X connect 4 0 6 0;
#X connect 4 0 7 0;
#X connect 4 1 5 0;
#X connect 4 2 1 0;
#X connect 5 0 8 0;
#X connect 5 0 9 0;
#X connect 6 0 2 0;
#X connect 8 0 3 0;
#X connect 10 0 11 0;
#X connect 11 0 2 0;
#X connect 11 0 3 0;
#X restore 62 206 pd playhead;
#X connect 0 0 19 0;
#X connect 2 0 4 0;
#X connect 2 0 3 0;
#X connect 2 0 15 0;
#X connect 6 0 5 0;
#X connect 7 0 2 0;
#X connect 7 0 6 0;
#X connect 8 0 9 0;
#X connect 8 0 10 0;
#X connect 9 0 3 0;
#X connect 11 0 4 0;
#X connect 12 0 5 0;
#X connect 14 0 15 0;
#X connect 18 0 14 0;
#X connect 18 0 16 0;
#X connect 19 0 8 0;
#X connect 19 1 21 0;
#X connect 19 2 11 0;
#X connect 19 2 17 0;
#X connect 19 3 12 0;
#X connect 19 3 13 0;
#X connect 19 4 18 0;
#X connect 19 5 20 0;
#X connect 19 6 1 0;
#X restore 82 100 pd sample;
#N canvas 914 35 449 708 window 0;
#X obj 12 11 inlet;
#X obj 121 241 s \$0-error;
#X msg 148 80 0;
#X obj 22 116 s \$0-window-sel-r;
#X obj 148 51 loadbang;
#X msg 22 91 set \$1;
#X obj 12 141 s \$0-window-sel;
#X obj 12 51 route shape fade;
#N canvas 1027 35 336 708 fade 0;
#X obj 9 19 inlet;
#X obj 123 429 s \$0-error;
#X obj 9 49 route in out time;
#X obj 9 89 != 0;
#X msg 19 114 set \$1;
#X obj 19 139 s \$0-fade-in-r;
#X obj 47 204 != 0;
#X msg 57 229 set \$1;
#X obj 47 279 s \$0-fade-out;
#X obj 9 164 s \$0-fade-in;
#X msg 96 319 set \$1;
#X obj 86 369 s \$0-fade-time;
#X obj 96 344 s \$0-fade-time-r;
#X obj 57 254 s \$0-fade-out-r;
#X msg 152 78 0;
#X obj 152 49 loadbang;
#X msg 177 78 10;
#X connect 0 0 2 0;
#X connect 2 0 3 0;
#X connect 2 1 6 0;
#X connect 2 2 10 0;
#X connect 2 2 11 0;
#X connect 2 3 1 0;
#X connect 3 0 4 0;
#X connect 3 0 9 0;
#X connect 4 0 5 0;
#X connect 6 0 7 0;
#X connect 6 0 8 0;
#X connect 7 0 13 0;
#X connect 10 0 12 0;
#X connect 14 0 5 0;
#X connect 14 0 13 0;
#X connect 15 0 14 0;
#X connect 15 0 16 0;
#X connect 16 0 12 0;
#X restore 66 181 pd fade;
#X connect 0 0 7 0;
#X connect 2 0 3 0;
#X connect 4 0 2 0;
#X connect 5 0 3 0;
#X connect 7 0 5 0;
#X connect 7 0 6 0;
#X connect 7 1 8 0;
#X connect 7 2 1 0;
#X restore 159 100 pd window;
#N canvas 914 35 449 708 offset 0;
#X obj 12 12 inlet;
#X obj 212 151 s \$0-error;
#N canvas 1027 35 336 708 playhead 0;
#X obj 12 11 inlet;
#X obj 240 471 s \$0-error;
#X msg 283 51 0;
#X obj 22 116 s \$0-offset-playhead-r;
#X obj 12 51 route float unit chance precision;
#X obj 79 206 s \$0-offset-playhead-unit-r;
#X obj 136 296 s \$0-offset-playhead-chance-r;
#X obj 193 386 s \$0-offset-playhead-precision-r;
#X obj 283 22 loadbang;
#X msg 22 91 set \$1;
#X msg 79 181 set \$1;
#X msg 136 271 set \$1;
#X msg 193 361 set \$1;
#X obj 12 141 s \$0-offset-playhead;
#X obj 69 231 s \$0-offset-playhead-unit;
#X obj 126 321 s \$0-offset-playhead-chance;
#X obj 183 411 s \$0-offset-playhead-precision-r;
#X connect 0 0 4 0;
#X connect 2 0 5 0;
#X connect 2 0 3 0;
#X connect 2 0 6 0;
#X connect 2 0 7 0;
#X connect 4 0 9 0;
#X connect 4 0 13 0;
#X connect 4 1 10 0;
#X connect 4 1 14 0;
#X connect 4 2 11 0;
#X connect 4 2 15 0;
#X connect 4 3 12 0;
#X connect 4 3 16 0;
#X connect 4 4 1 0;
#X connect 8 0 2 0;
#X connect 9 0 3 0;
#X connect 10 0 5 0;
#X connect 11 0 6 0;
#X connect 12 0 7 0;
#X restore 12 91 pd playhead;
#X obj 12 51 route playhead pitch duration;
#N canvas 1027 35 336 708 pitch 0;
#X obj 12 11 inlet;
#X obj 240 471 s \$0-error;
#X msg 283 51 0;
#X obj 12 51 route float unit chance precision;
#X obj 283 22 loadbang;
#X msg 22 91 set \$1;
#X msg 79 181 set \$1;
#X msg 136 271 set \$1;
#X msg 193 361 set \$1;
#X obj 22 116 s \$0-offset-pitch-r;
#X obj 12 141 s \$0-offset-pitch;
#X obj 79 206 s \$0-offset-pitch-unit-r;
#X obj 69 231 s \$0-offset-pitch-unit;
#X obj 136 296 s \$0-offset-pitch-chance-r;
#X obj 126 321 s \$0-offset-pitch-chance;
#X obj 193 386 s \$0-offset-pitch-precision-r;
#X obj 183 411 s \$0-offset-pitch-precision-r;
#X connect 0 0 3 0;
#X connect 2 0 9 0;
#X connect 2 0 11 0;
#X connect 2 0 13 0;
#X connect 2 0 15 0;
#X connect 3 0 5 0;
#X connect 3 0 10 0;
#X connect 3 1 6 0;
#X connect 3 1 12 0;
#X connect 3 2 7 0;
#X connect 3 2 14 0;
#X connect 3 3 8 0;
#X connect 3 3 16 0;
#X connect 3 4 1 0;
#X connect 4 0 2 0;
#X connect 5 0 9 0;
#X connect 6 0 11 0;
#X connect 7 0 13 0;
#X connect 8 0 15 0;
#X restore 103 91 pd pitch;
#N canvas 1027 35 336 708 duration 0;
#X obj 12 11 inlet;
#X obj 240 471 s \$0-error;
#X msg 283 51 0;
#X obj 12 51 route float unit chance precision;
#X obj 283 22 loadbang;
#X msg 22 91 set \$1;
#X msg 79 181 set \$1;
#X msg 136 271 set \$1;
#X msg 193 361 set \$1;
#X obj 22 116 s \$0-offset-duration-r;
#X obj 12 141 s \$0-offset-duration;
#X obj 79 206 s \$0-offset-duration-unit-r;
#X obj 69 231 s \$0-offset-duration-unit;
#X obj 136 296 s \$0-offset-duration-chance-r;
#X obj 126 321 s \$0-offset-duration-chance;
#X obj 193 386 s \$0-offset-duration-precision-r;
#X obj 183 411 s \$0-offset-duration-precision-r;
#X connect 0 0 3 0;
#X connect 2 0 9 0;
#X connect 2 0 11 0;
#X connect 2 0 13 0;
#X connect 2 0 15 0;
#X connect 3 0 5 0;
#X connect 3 0 10 0;
#X connect 3 1 6 0;
#X connect 3 1 12 0;
#X connect 3 2 7 0;
#X connect 3 2 14 0;
#X connect 3 3 8 0;
#X connect 3 3 16 0;
#X connect 3 4 1 0;
#X connect 4 0 2 0;
#X connect 5 0 9 0;
#X connect 6 0 11 0;
#X connect 7 0 13 0;
#X connect 8 0 15 0;
#X restore 173 91 pd duration;
#X connect 0 0 3 0;
#X connect 3 0 2 0;
#X connect 3 1 4 0;
#X connect 3 2 5 0;
#X connect 3 3 1 0;
#X restore 236 100 pd offset;
#X obj 659 337 s \$0-poly-r;
#X obj 712 442 s \$0-legato-r;
#X obj 871 372 s \$0-out-r;
#X msg 760 163 0;
#X msg 503 163 100;
#N canvas 759 35 604 708 load 0;
#X obj 57 52 inlet;
#X obj 57 76 route sample window;
#X obj 57 116 s \$0-sample-path-r;
#X obj 122 156 s \$0-window-path-r;
#X obj 187 216 s \$0-error;
#X connect 0 0 1 0;
#X connect 1 0 2 0;
#X connect 1 1 3 0;
#X connect 1 2 4 0;
#X restore 215 129 pd load;
#X obj 760 134 loadbang;
#X obj 755 317 s \$0-bendMode-r;
#X msg 869 163 2;
#X obj 808 287 s \$0-bendRange;
#X obj 649 287 != 0;
#X obj 702 392 != 0;
#X obj 755 287 != 0;
#X msg 30 615 se recibió un mensaje desconocido;
#X obj 30 645 print granola~;
#X text 606 532 acá se manipulan los mensajes de control de la abstracción
\; se utiliza el objeto [route] para enviar el valor del mensaje a
su respectivo [send] \, que enviará el valor a su correspondiente
objeto de control en la interfaz (slider \, número \, etc... si lo
hubiera) y luego de ahí a donde se hará efectivo ese valor como parámetro
\; acá se inicializan también los valores por defecto de dichos parámetros
;
#X msg 659 312 set \$1;
#X obj 649 362 s \$0-poly;
#X msg 712 417 set \$1;
#X obj 702 467 s \$0-legato;
#X msg 871 347 set \$1;
#X obj 861 397 s \$0-out;
#X obj 12 71 route grain sample window offset load stereo;
#N canvas 914 35 449 708 stereo 0;
#X obj 12 11 inlet;
#X obj 135 291 s \$0-error;
#X msg 283 51 0;
#X obj 283 22 loadbang;
#X msg 22 91 set \$1;
#X msg 83 181 set \$1;
#X obj 12 51 route float chance;
#X obj 22 116 s \$0-stereo-amount-r;
#X obj 12 141 s \$0-stereo-amount;
#X obj 83 206 s \$0-stereo-chance-r;
#X obj 73 231 s \$0-stereo-chance;
#X connect 0 0 6 0;
#X connect 2 0 7 0;
#X connect 2 0 9 0;
#X connect 3 0 2 0;
#X connect 4 0 7 0;
#X connect 5 0 9 0;
#X connect 6 0 4 0;
#X connect 6 0 8 0;
#X connect 6 1 5 0;
#X connect 6 1 10 0;
#X connect 6 2 1 0;
#X restore 266 159 pd stereo;
#X obj 649 257 route poly legato bendMode bendRange out state;
#X text 111 576 cuando la abstracción reciba un mensaje desconocido
se imprimirá un mensaje haciéndolo saber;
#X msg 327 229 set \$1;
#X obj 327 254 s \$0-att-r;
#X obj 317 279 s \$0-att;
#X msg 405 229 set \$1;
#X msg 483 229 set \$1;
#X msg 561 229 set \$1;
#X obj 551 279 s \$0-rel;
#X obj 561 254 s \$0-rel-r;
#X obj 483 254 s \$0-sus-r;
#X obj 473 279 s \$0-sus;
#X obj 395 279 s \$0-dec;
#X obj 405 254 s \$0-dec-r;
#X connect 0 0 31 0;
#X connect 2 0 35 0;
#X connect 2 0 37 0;
#X connect 2 1 38 0;
#X connect 2 1 45 0;
#X connect 2 2 39 0;
#X connect 2 2 44 0;
#X connect 2 3 40 0;
#X connect 2 3 41 0;
#X connect 2 4 33 0;
#X connect 4 0 22 0;
#X connect 12 0 11 0;
#X connect 12 0 9 0;
#X connect 12 0 16 0;
#X connect 13 0 43 0;
#X connect 15 0 12 0;
#X connect 15 0 13 0;
#X connect 15 0 17 0;
#X connect 17 0 18 0;
#X connect 19 0 25 0;
#X connect 19 0 26 0;
#X connect 20 0 27 0;
#X connect 20 0 28 0;
#X connect 21 0 16 0;
#X connect 22 0 23 0;
#X connect 25 0 9 0;
#X connect 27 0 10 0;
#X connect 29 0 11 0;
#X connect 31 0 3 0;
#X connect 31 1 6 0;
#X connect 31 2 7 0;
#X connect 31 3 8 0;
#X connect 31 4 14 0;
#X connect 31 5 32 0;
#X connect 31 6 2 0;
#X connect 33 0 19 0;
#X connect 33 1 20 0;
#X connect 33 2 21 0;
#X connect 33 3 18 0;
#X connect 33 4 30 0;
#X connect 33 4 29 0;
#X connect 33 5 1 0;
#X connect 33 6 5 0;
#X connect 35 0 36 0;
#X connect 38 0 46 0;
#X connect 39 0 43 0;
#X connect 40 0 42 0;
#X restore 600 92 pd route-inlet-messages;
#N canvas -79 33 1366 685 sample 0;
#X obj 375 192 soundfiler;
#X obj 270 379 t b f;
#X obj 270 426 s \$0-reload;
#X obj 12 287 phasor~;
#X msg 58 262 0;
#X obj 12 377 tabwrite~ \$0-sample-vis;
#X obj 12 317 *~;
#X obj 966 58 r \$0-sample-note;
#X obj 375 96 openpanel;
#X obj 225 211 s \$0-sample-path;
#X obj 235 115 r \$0-sample-path-r;
#X obj 225 55 symbol;
#X obj 12 12 table \$0-sampleL;
#X obj 12 42 table \$0-sampleR;
#X obj 12 347 tabread4~ \$0-sampleL;
#X obj 449 120 f \$0;
#X obj 449 96 loadbang;
#X obj 375 144 list append;
#X msg 375 168 read -resize \$1 \$2-sampleL \$2-sampleR;
#X obj 302 607 s \$0-sample-duration;
#X obj 452 240 s \$0-sample-rate;
#X obj 30 132 r \$0-sample-duration;
#X obj 12 102 r \$0-sample-rate;
#X obj 966 83 list prepend pass sample note;
#X obj 407 357 list prepend pass sample duration;
#X obj 442 264 list prepend pass sample rate;
#X obj 442 288 s \$0-params;
#X obj 407 382 s \$0-params;
#X obj 966 108 s \$0-params;
#X msg 442 216 \$1;
#X obj 12 202 /;
#X obj 12 232 *, f 11;
#X obj 40 162 t b f f;
#X obj 86 202 / 1024;
#X obj 713 241 s \$0-sample-chan;
#X msg 703 211 \$3;
#X obj 703 271 list prepend pass sample chan;
#X obj 703 296 s \$0-params;
#X obj 690 111 r \$0-rec;
#X obj 708 326 loadbang;
#X obj 708 351 samplerate~;
#X obj 690 376 f;
#X msg 738 211 2;
#X obj 404 467 * 0.001;
#X obj 386 492 *;
#X msg 386 517 resize \$1;
#X obj 386 542 s \$0-sampleL;
#X obj 396 567 s \$0-sampleR;
#X obj 386 437 r \$0-size;
#X obj 690 141 change;
#X obj 193 307 r \$0-sample-update-vis;
#X obj 690 171 sel 0;
#X obj 375 72 r \$0-load-sample;
#X obj 15 435 t b b;
#X msg 47 464 1;
#X msg 15 522 openpanel;
#X obj 15 551 send camomile;
#X obj 186 494 receive openpanel;
#X obj 186 523 pack s f;
#X msg 186 552 \$2 \$1;
#X obj 186 581 route 1;
#X obj 239 465 r \$0-openpanel-num;
#X obj 47 488 s \$0-openpanel-num;
#X obj 281 45 s \$0-path-sample;
#X obj 225 16 r \$0-path-sample-open;
#X obj 235 168 symbol;
#X obj 15 406 r \$0-load-sample;
#X connect 0 0 1 0;
#X connect 0 1 29 0;
#X connect 0 1 35 0;
#X connect 1 0 2 0;
#X connect 1 0 4 0;
#X connect 1 0 5 0;
#X connect 1 1 19 0;
#X connect 1 1 24 0;
#X connect 3 0 6 0;
#X connect 4 0 3 1;
#X connect 6 0 14 0;
#X connect 7 0 23 0;
#X connect 8 0 17 0;
#X connect 8 0 9 0;
#X connect 10 0 17 0;
#X connect 10 0 65 0;
#X connect 11 0 17 0;
#X connect 11 0 9 0;
#X connect 14 0 5 0;
#X connect 15 0 17 1;
#X connect 16 0 15 0;
#X connect 17 0 18 0;
#X connect 18 0 0 0;
#X connect 21 0 6 1;
#X connect 21 0 32 0;
#X connect 22 0 30 0;
#X connect 23 0 28 0;
#X connect 24 0 27 0;
#X connect 25 0 26 0;
#X connect 29 0 20 0;
#X connect 29 0 25 0;
#X connect 30 0 31 0;
#X connect 31 0 3 0;
#X connect 32 0 30 0;
#X connect 32 1 30 1;
#X connect 32 2 33 0;
#X connect 33 0 31 1;
#X connect 35 0 34 0;
#X connect 35 0 36 0;
#X connect 36 0 37 0;
#X connect 38 0 49 0;
#X connect 39 0 40 0;
#X connect 40 0 41 1;
#X connect 40 0 43 0;
#X connect 41 0 29 0;
#X connect 42 0 34 0;
#X connect 42 0 36 0;
#X connect 43 0 44 1;
#X connect 44 0 45 0;
#X connect 44 0 1 0;
#X connect 45 0 46 0;
#X connect 45 0 47 0;
#X connect 48 0 44 0;
#X connect 49 0 51 0;
#X connect 50 0 4 0;
#X connect 50 0 5 0;
#X connect 51 0 41 0;
#X connect 51 0 42 0;
#X connect 52 0 8 0;
#X connect 53 0 55 0;
#X connect 53 1 54 0;
#X connect 54 0 62 0;
#X connect 55 0 56 0;
#X connect 57 0 58 0;
#X connect 58 0 59 0;
#X connect 59 0 60 0;
#X connect 60 0 11 0;
#X connect 60 0 63 0;
#X connect 61 0 58 1;
#X connect 64 0 11 0;
#X connect 64 0 63 0;
#X connect 65 0 9 0;
#X connect 66 0 53 0;
#X restore 12 560 pd sample;
#X obj 305 249 r \$0-state;
#X obj 305 279 outlet;
#X msg 310 160 all bang;
#N canvas 459 35 449 708 params 0;
#X obj 165 135 r \$0-params;
#X obj 165 251 outlet;
#X obj 276 87 loadbang;
#X obj 276 111 f \$0;
#X obj 276 135 list prepend pass id;
#X text 468 40 las instancias de grano de cada voz necesitan acceso
al sample \, a la ventana y a la segunda ventana de suavizado \, todas
estas tablas utilizan la variable \$0 (número único que sirve para
identificar este parche) en su nombre para evitar conflictos y poder
\, por ejemplo \, correr dos instancias del sintetizador sin problemas
\; esto trae otro problema ya que los granos son instancias generadas
por un objeto [clone] cada una con su valor único de la variable \$0
\, por lo que es necesario enviar el valor desde aquí a través de
todas las instancias de voces para así llegar a todas las instancias
de grano dentro de ellas \, donde se construyen dinámicamente los
nombres de las tablas y asi los granos pueden leer de ellas;
#X connect 0 0 1 0;
#X connect 2 0 3 0;
#X connect 3 0 4 0;
#X connect 4 0 1 0;
#X restore 212 117 pd params;
#N canvas 104 104 450 300 targetall 0;
#X obj 12 185 outlet;
#X obj 12 156 list trim;
#X obj 12 132 list prepend all;
#X obj 12 103 inlet;
#X connect 1 0 0 0;
#X connect 2 0 1 0;
#X connect 3 0 2 0;
#X restore 212 146 pd targetall;
#X obj 310 135 r \$0-trigger;
#X text 96 483 en estos subparches \, entre otras cosas \, se reciben
los parámetros de la interfaz \, se los opera matemáticamente de
ser necesario \, y luego se envían a todas las instancias del [clone]
de voz \; el prefijo pass indica que el mensaje será enviado a las
instancias del [clone] de grano;
#N canvas 685 35 336 708 rec 0;
#X obj 30 49 inlet~;
#X obj 86 49 inlet~;
#X obj 152 49 inlet;
#X obj 30 449 tabwrite~ \$0-sampleL;
#X obj 86 474 tabwrite~ \$0-sampleR;
#X msg 152 399 stop;
#X obj 152 129 != 0;
#X msg 162 154 set \$1;
#X obj 162 179 s \$0-rec-r;
#X obj 152 204 s \$0-rec;
#X obj 232 229 r \$0-rec;
#X obj 373 359 delay;
#X obj 152 279 change;
#X msg 201 49 0;
#X obj 152 339 t b b;
#X obj 152 364 s \$0-sample-update-vis;
#X msg 185 399 start \$1;
#X obj 312 189 f;
#X obj 330 164 *;
#X obj 348 139 r \$0-sample-duration;
#X obj 152 309 sel 0 1, f 10;
#X obj 330 114 * 0.01;
#X obj 405 204 loadbang;
#X obj 405 284 -;
#X obj 415 254 t b f;
#X msg 405 229 1;
#X obj 405 334 *;
#X obj 152 74 unpack f f f;
#X obj 423 309 r \$0-sample-duration;
#X obj 372 436 loadbang;
#X obj 372 461 samplerate~;
#X obj 372 486 * 0.001;
#X obj 335 518 /;
#X connect 0 0 3 0;
#X connect 1 0 4 0;
#X connect 2 0 27 0;
#X connect 5 0 4 0;
#X connect 5 0 3 0;
#X connect 6 0 7 0;
#X connect 6 0 9 0;
#X connect 7 0 8 0;
#X connect 10 0 12 0;
#X connect 11 0 13 0;
#X connect 12 0 20 0;
#X connect 13 0 6 0;
#X connect 14 0 15 0;
#X connect 14 1 5 0;
#X connect 16 0 4 0;
#X connect 16 0 3 0;
#X connect 17 0 16 0;
#X connect 18 0 17 1;
#X connect 19 0 18 1;
#X connect 20 0 14 0;
#X connect 20 1 11 0;
#X connect 20 1 17 0;
#X connect 21 0 18 0;
#X connect 21 0 24 0;
#X connect 22 0 25 0;
#X connect 23 0 26 0;
#X connect 24 0 23 0;
#X connect 24 1 23 1;
#X connect 25 0 23 0;
#X connect 26 0 11 1;
#X connect 27 0 6 0;
#X connect 27 1 21 0;
#X connect 28 0 32 0;
#X connect 29 0 30 0;
#X connect 30 0 31 0;
#X connect 31 0 32 1;
#X connect 32 0 26 1;
#X restore 174 82 pd rec;
#X f 16;
#X obj 392 62 s \$0-size;
#X text 588 477 el sintetizador está estructurado de la siguiente
manera: \; -este es el parche principal \, donde sucede todo lo relacionado
a la interfaz y la operación de parámetros \, el ruteo de mensajes
de entrada y la entrada de mensajes midi \; -los mensajes midi y ciertos
parámetros (modo mono/polifónico y adsr) son enviados a un objeto
[clone] que instancia 6 voces que a su vez cuentan con un objeto [clone]
que instancia 10 granos que constituyen el sonido de la voz (para más
información revisar [pd help] dentro de [voice~]) \; -el resto de
los parámetros atraviesan las instancias de las voces para llegar
a las instancias de los granos;
#X obj 310 92 s \$0-trigger;
#X obj 310 32 route bang rec size seed;
#X obj 509 62 list prepend pass seed;
#X obj 509 87 s \$0-params;
#N canvas 914 35 449 708 playhead-vis 0;
#X obj 23 295 *;
#X obj 61 205 t b f;
#X obj 41 235 /, f 5;
#X obj 41 265 t b f;
#X obj 41 175 route rate duration;
#X obj 23 135 route speed pos;
#X obj 312 175 route manual noteon;
#X msg 361 260 0;
#X msg 386 260 1;
#X obj 322 260 f;
#X obj 322 290 spigot;
#X obj 312 200 t f b;
#N canvas 646 46 677 500 phase 0;
#X obj 67 104 sel 0 1;
#X msg 92 134 2;
#X obj 35 74 t b f;
#X msg 67 134 1;
#X obj 17 164 /;
#X obj 17 314 phasor~;
#X obj 17 14 inlet;
#X obj 17 134 f;
#X obj 343 111 inlet;
#X obj 199 35 route start end;
#X obj 199 185 -;
#X msg 199 235 1;
#X obj 199 260 /, f 5;
#X obj 199 210 t b f;
#X obj 17 194 *;
#X obj 17 629 *;
#X obj 199 290 t b f;
#X msg 199 320 1;
#X obj 199 345 /, f 5;
#X obj 17 654 +;
#X obj 17 374 snapshot~;
#X obj 17 404 *;
#X obj 17 679 outlet;
#X obj 63 194 *;
#X obj 343 201 clip;
#X obj 63 254 -;
#X obj 81 224 *;
#X obj 199 65 t b f;
#X obj 250 65 t b f;
#X obj 63 284 clip 0 0.999999;
#X obj 373 141 f;
#X obj 17 599 -, f 4;
#X obj 43 544 *, f 4;
#X obj 43 514 /;
#X obj 70 454 wrap;
#X obj 43 484 -;
#X obj 17 429 t f f f, f 8;
#X obj 43 569 * 2;
#X obj 343 261 +, f 6;
#X obj 343 231 /;
#X obj 382 201 * 0.5;
#X obj 382 231 *;
#X obj 373 171 t f b;
#X obj 474 105 r \$0-params;
#X obj 474 129 list trim;
#X obj 474 153 route loop;
#X obj 432 59 route pingpong;
#X obj 108 338 loadbang;
#X obj 108 362 metro 25;
#X connect 0 0 3 0;
#X connect 0 1 1 0;
#X connect 1 0 4 1;
#X connect 1 0 21 1;
#X connect 1 0 39 1;
#X connect 2 0 7 0;
#X connect 2 0 30 0;
#X connect 2 1 0 0;
#X connect 2 1 41 1;
#X connect 3 0 4 1;
#X connect 3 0 21 1;
#X connect 3 0 39 1;
#X connect 4 0 14 0;
#X connect 5 0 20 0;
#X connect 6 0 7 0;
#X connect 7 0 4 0;
#X connect 8 0 24 0;
#X connect 9 0 27 0;
#X connect 9 1 10 0;
#X connect 9 1 28 0;
#X connect 10 0 13 0;
#X connect 11 0 12 0;
#X connect 12 0 16 0;
#X connect 13 0 11 0;
#X connect 13 1 12 1;
#X connect 14 0 5 0;
#X connect 15 0 19 0;
#X connect 16 0 17 0;
#X connect 16 0 14 0;
#X connect 16 0 26 0;
#X connect 16 0 30 0;
#X connect 16 1 18 1;
#X connect 16 1 14 1;
#X connect 16 1 23 1;
#X connect 16 1 26 1;
#X connect 17 0 18 0;
#X connect 18 0 15 1;
#X connect 19 0 22 0;
#X connect 19 0 30 1;
#X connect 20 0 21 0;
#X connect 21 0 36 0;
#X connect 23 0 25 0;
#X connect 24 0 39 0;
#X connect 25 0 29 0;
#X connect 26 0 25 1;
#X connect 27 0 10 0;
#X connect 27 0 24 0;
#X connect 27 0 38 0;
#X connect 27 1 26 0;
#X connect 27 1 24 1;
#X connect 27 1 19 1;
#X connect 27 1 10 1;
#X connect 27 1 40 0;
#X connect 28 0 24 0;
#X connect 28 1 24 2;
#X connect 29 0 5 1;
#X connect 30 0 42 0;
#X connect 31 0 15 0;
#X connect 32 0 37 0;
#X connect 33 0 32 0;
#X connect 34 0 35 1;
#X connect 34 0 32 1;
#X connect 35 0 33 0;
#X connect 35 0 33 1;
#X connect 36 0 31 0;
#X connect 36 1 35 0;
#X connect 36 2 34 0;
#X connect 37 0 31 1;
#X connect 38 0 23 0;
#X connect 39 0 38 0;
#X connect 40 0 41 0;
#X connect 41 0 38 1;
#X connect 42 0 24 0;
#X connect 42 1 41 0;
#X connect 43 0 44 0;
#X connect 44 0 45 0;
#X connect 44 0 46 0;
#X connect 45 0 9 0;
#X connect 46 0 2 0;
#X connect 47 0 48 0;
#X connect 48 0 20 0;
#X restore 23 334 pd phase;
#X obj 23 95 route playhead sample;
#X obj 23 18 r \$0-params;
#X obj 23 66 route pass;
#X obj 23 42 list trim;
#X obj 5 578 s \$0-playhead-vis;
#X obj 23 358 * 200;
#X text 363 228 note reset;
#X obj 184 55 inlet;
#X obj 184 85 route bend;
#X obj 251 115 unpack;
#X obj 290 145 sel 0;
#X msg 5 550 pos \$1 219;
#X obj 15 526 s camomile;
#X msg 15 502 gui redraw;
#X obj 5 430 metro 20;
#X obj 5 454 f;
#X obj 5 478 change;
#X obj 5 406 loadbang;
#X obj 23 382 + 569;
#X obj 322 230 bang;
#X connect 0 0 12 0;
#X connect 1 0 2 0;
#X connect 1 1 2 1;
#X connect 2 0 3 0;
#X connect 3 0 0 0;
#X connect 3 1 0 1;
#X connect 4 0 2 0;
#X connect 4 1 1 0;
#X connect 5 0 0 0;
#X connect 5 1 6 0;
#X connect 6 0 11 0;
#X connect 6 1 8 0;
#X connect 6 1 9 1;
#X connect 7 0 10 1;
#X connect 8 0 10 1;
#X connect 9 0 10 0;
#X connect 10 0 12 1;
#X connect 11 0 12 1;
#X connect 11 1 7 0;
#X connect 12 0 18 0;
#X connect 13 0 5 0;
#X connect 13 1 4 0;
#X connect 14 0 16 0;
#X connect 15 0 13 0;
#X connect 16 0 15 0;
#X connect 18 0 31 0;
#X connect 20 0 21 0;
#X connect 21 1 22 0;
#X connect 22 1 23 0;
#X connect 23 1 32 0;
#X connect 24 0 17 0;
#X connect 26 0 25 0;
#X connect 27 0 28 0;
#X connect 28 0 29 0;
#X connect 29 0 24 0;
#X connect 29 0 26 0;
#X connect 30 0 27 0;
#X connect 31 0 28 1;
#X connect 32 0 9 0;
#X restore 22 141 pd playhead-vis;
#X obj 450 143 cnv 15 403 295 empty empty empty 20 12 0 14 #202020
#404040 0;
#X obj 456 149 cnv 15 391 283 empty empty empty 20 12 0 14 #f4f4dc
#404040 0;
#X obj 570 218 hsl 199 10 0 100 0 0 \$0-playhead-s \$0-playhead-r empty
-2 -8 0 10 #202020 #f4f4dc #202020 0 0;
#X obj 474 210 nbx 5 15 1 9999 0 0 \$0-grain-rate-s \$0-grain-rate-r
rate 0 -8 0 10 #202020 #f4f4dc #202020 0 256;
#X obj 518 200 hradio 10 1 0 2 \$0-grain-rate-unit-s \$0-grain-rate-unit-r
ms 13 18 0 10 #f4f4dc #202020 #202020 0;
#X obj 483 289 cnv 10 30 6 empty \$0-text envelope: 1 2 0 10 #f4f4dc
#202020 0;
#X obj 463 302 cnv 15 15 15 empty \$0-text att 0 6 0 10 #f4f4dc #202020
0;
#X obj 567 258 tgl 10 0 \$0-playhead-reset-s \$0-playhead-reset-r reset_on_note
15 4 0 10 #f4f4dc #202020 #202020 0 1;
#X obj 567 293 cnv 2 275 2 empty \$0-bar empty 20 12 0 14 #000000 #000000
0;
#N canvas 0 50 450 250 (subpatch) 0;
#X array \$0-win 128 float 0;
#X coords 0 1 127 0 60 30 1 0 0;
#X restore 783 258 graph;
#X obj 668 273 nbx 3 15 -127 127 0 0 \$0-sample-note-s \$0-sample-note-r
note_origin 40 7 0 10 #202020 #fcfcfc #202020 0 256;
#X obj 731 153 bng 10 250 50 0 \$0-load-sample empty load 15 4 0 10
#f4f4dc #202020 #202020;
#X obj 460 386 tgl 10 0 \$0-legato-s \$0-legato-r legato 15 4 0 10
#f4f4dc #202020 #202020 0 1;
#X obj 460 416 hradio 10 1 0 2 \$0-bendMode-s \$0-bendMode-r bend:_global
25 4 0 10 #f4f4dc #202020 #202020 0;
#X obj 460 401 hradio 10 1 0 2 \$0-poly-s \$0-poly-r poly 25 4 0 10
#f4f4dc #202020 #202020 0;
#X obj 460 280 cnv 2 95 2 empty \$0-bar empty 20 12 0 14 #000000 #000000
0;
#X obj 665 258 tgl 10 0 \$0-play-s \$0-play-r play 15 4 0 10 #f4f4dc
#202020 #202020 0 1;
#X obj 783 193 bng 10 250 50 0 \$0-load-window empty load 15 4 0 10
#f4f4dc #202020 #202020;
#X obj 460 100 tgl 10 0 \$0-grain-rate-sync-s \$0-grain-rate-sync-r
sync 15 4 0 10 #f4f4dc #202020 #202020 0 1;
#X obj 463 322 cnv 15 15 15 empty \$0-text dec 0 6 0 10 #f4f4dc #202020
0;
#X obj 463 342 cnv 15 15 15 empty \$0-text sus 0 6 0 10 #f4f4dc #202020
0;
#X obj 463 362 cnv 15 15 15 empty \$0-text rel 0 6 0 10 #f4f4dc #202020
0;
#X obj 492 156 cnv 10 30 6 empty \$0-text grain: 1 2 0 10 #f4f4dc #202020
0;
#X obj 518 170 hradio 10 1 0 2 \$0-grain-duration-unit-s \$0-grain-duration-unit-r
ms 13 18 0 10 #f4f4dc #202020 #000000 0;
#X obj 793 159 cnv 15 30 6 empty \$0-text window: 1 2 0 10 #f4f4dc
#202020 0;
#X obj 565 275 cnv 10 10 10 empty \$0-text speed 0 6 0 10 #f4f4dc #202020
0;
#X obj 656 300 cnv 2 2 101 empty \$0-bar empty 20 12 0 14 #000000 #000000
0;
#X obj 688 302 cnv 15 30 6 empty \$0-text pitch: -1 2 0 10 #f4f4dc
#202020 0;
#X obj 752 300 cnv 2 2 101 empty \$0-bar empty 20 12 0 14 #000000 #000000
0;
#X obj 775 302 cnv 15 30 6 empty \$0-text duration: -1 2 0 10 #f4f4dc
#202020 0;
#X obj 776 154 cnv 2 2 134 empty \$0-bar empty 20 12 0 14 #000000 #000000
0;
#X obj 474 180 nbx 5 15 1 9999 0 0 \$0-grain-duration-s \$0-grain-duration-r
durat. 0 -8 0 10 #202020 #f4f4dc #202020 0 256;
#X obj 783 167 hradio 10 1 0 6 \$0-window-sel-s \$0-window-sel-r up
0 17 0 10 #f4f4dc #202020 #202020 0;
#X obj 570 168 cnv 15 198 48 empty \$0-text empty 20 12 0 14 #f4f4dc
#000000 0;
#N canvas 0 50 450 250 (subpatch) 0;
#X array \$0-sample-vis 1024 float 0;
#X coords 0 1 1023 -1 200 50 1 0 0;
#X restore 569 167 graph;
#X obj 783 208 tgl 10 0 \$0-fade-in-s \$0-fade-in-r fade-in 15 4 0
10 #f4f4dc #202020 #202020 0 1;
#X obj 569 153 cnv 12 90 12 empty \$0-text sample: 1 4 0 10 #f4f4dc
#202020 0;
#X obj 460 265 hradio 10 1 0 3 \$0-grain-dir-s \$0-grain-dir-r random
35 5 0 10 #f4f4dc #202020 #202020 0;
#X obj 709 258 tgl 10 0 \$0-pingpong-s \$0-pingpong-r pingpong 15 4
0 10 #f4f4dc #202020 #202020 0 1;
#X obj 570 233 hsl 199 10 0 100 0 0 \$0-loop-start-s \$0-loop-start-r
empty -2 -8 0 10 #202020 #f4f4dc #202020 0 0;
#X obj 570 243 hsl 199 10 0 100 0 0 \$0-loop-end-s \$0-loop-end-r empty
-2 -8 0 10 #202020 #f4f4dc #202020 0 0;
#X obj 581 302 cnv 10 30 6 empty \$0-text playhead: -1 2 0 10 #f4f4dc
#202020 0;
#X obj 575 327 nbx 5 15 -1e+37 1e+37 0 0 \$0-offset-playhead-s \$0-offset-playhead-r
offset 0 -8 0 10 #202020 #f4f4dc #202020 0 256;
#X obj 585 359 nbx 3 15 0 100 0 0 \$0-offset-playhead-chance-s \$0-offset-playhead-chance-r
chance 0 -8 0 10 #202020 #f4f4dc #202020 0 256;
#X obj 619 317 hradio 10 1 0 2 \$0-offset-playhead-unit-s \$0-offset-playhead-unit-r
ms 13 18 0 10 #f4f4dc #202020 #202020 0;
#X obj 578 391 hsl 62 10 0 100 0 0 \$0-offset-playhead-precision-s
\$0-offset-playhead-precision-r precision -2 -8 0 10 #202020 #f4f4dc
#202020 0 0;
#X obj 626 364 cnv 10 8 6 empty \$0-text % 1 2 0 10 #f4f4dc #202020
0;
#X obj 671 327 nbx 5 15 -1e+37 1e+37 0 0 \$0-offset-pitch-s \$0-offset-pitch-r
offset 0 -8 0 10 #000000 #fcfcfc #000000 0 256;
#X obj 681 359 nbx 3 15 0 100 0 0 \$0-offset-pitch-chance-s \$0-offset-pitch-chance-r
chance 0 -8 0 10 #202020 #f4f4dc #202020 0 256;
#X obj 715 317 hradio 10 1 0 2 \$0-offset-pitch-unit-s \$0-offset-pitch-unit-r
m 13 18 0 10 #f4f4dc #202020 #202020 0;
#X obj 674 391 hsl 62 10 0 100 0 0 \$0-offset-pitch-precision-s \$0-offset-pitch-precision-r
precision -2 -8 0 10 #202020 #f4f4dc #202020 0 0;
#X obj 722 364 cnv 10 10 6 empty \$0-text % 1 2 0 10 #f4f4dc #202020
0;
#X obj 767 327 nbx 5 15 -1e+37 1e+37 0 0 \$0-offset-duration-s \$0-offset-duration-r
offset 0 -8 0 10 #202020 #f4f4dc #202020 0 256;
#X obj 777 359 nbx 3 15 0 100 0 0 \$0-offset-duration-chance-s \$0-offset-duration-chance-r
chance 0 -8 0 10 #202020 #f4f4dc #202020 0 256;
#X obj 811 317 hradio 10 1 0 2 \$0-offset-duration-unit-s \$0-offset-duration-unit-r
ms 13 18 0 10 #f4f4dc #202020 #202020 0;
#X obj 770 391 hsl 62 10 0 100 0 0 \$0-offset-duration-precision-s
\$0-offset-duration-precision-r precision -2 -8 0 10 #202020 #f4f4dc
#202020 0 0;
#X obj 818 364 cnv 15 10 6 empty \$0-text % 1 2 0 10 #f4f4dc #202020
0;
#X obj 567 406 cnv 2 275 2 empty \$0-bar empty 20 12 0 14 #000000 #000000
0;
#X obj 484 300 nbx 5 15 0 1e+37 0 0 \$0-att-s \$0-att-r ms 58 8 0 10
#202020 #f4f4dc #202020 0 256;
#X obj 484 320 nbx 5 15 0 1e+37 0 0 \$0-dec-s \$0-dec-r ms 58 8 0 10
#202020 #f4f4dc #202020 0 256;
#X obj 484 340 nbx 5 15 0 100 0 0 \$0-sus-s \$0-sus-r % 58 8 0 10 #202020
#f4f4dc #202020 0 256;
#X obj 484 360 nbx 5 15 0 1e+37 0 0 \$0-rel-s \$0-rel-r ms 58 8 0 10
#202020 #f4f4dc #202020 0 256;
#X obj 599 273 nbx 5 15 -9999 9999 0 0 \$0-speed-s \$0-speed-r % 58
8 0 10 #202020 #f4f4dc #202020 0 256;
#X obj 571 415 cnv 15 15 15 empty \$0-text stereo 0 6 0 10 #f4f4dc
#202020 0;
#X obj 611 413 nbx 3 15 0 100 0 0 \$0-stereo-amount-s \$0-stereo-amount-r
% 41 8 0 10 #202020 #f4f4dc #202020 0 256;
#X obj 669 415 cnv 15 15 15 empty \$0-text chance 0 6 0 10 #f4f4dc
#202020 0;
#X obj 709 413 nbx 3 15 0 100 0 0 \$0-stereo-chance-s \$0-stereo-chance-r
% 41 8 0 10 #202020 #f4f4dc #202020 0 256;
#X obj 770 415 cnv 15 15 15 empty \$0-text out 0 6 0 10 #f4f4dc #202020
0;
#X obj 790 413 nbx 3 15 -100 12 0 0 \$0-out-s \$0-out-r dB 41 8 0 10
#202020 #f4f4dc #202020 0 256;
#X obj 783 223 tgl 10 0 \$0-fade-out-s \$0-fade-out-r fade-out 15 4
0 10 #f4f4dc #202020 #202020 0 1;
#X obj 783 242 cnv 14 60 14 empty \$0-text empty 20 12 0 14 #f4f4dc
#202020 0;
#X obj 783 238 nbx 3 15 0 999 0 0 \$0-fade-time-s \$0-fade-time-r ms
41 8 0 10 #000000 #fcfcfc #000000 0 256;
#X obj 689 153 tgl 10 0 \$0-rec-s \$0-rec-r rec 15 4 0 10 #f4f4dc #202020
#202020 0 1;
#X obj 660 219 cnv 1 1 7 empty \$0-playhead-vis empty 20 12 0 14 #f4f4dc
#000000 0;
#X obj 560 153 cnv 2 2 275 empty \$0-bar empty 20 12 0 14 #000000 #000000
0;
#X obj 764 413 cnv 2 2 15 empty \$0-bar empty 20 12 0 14 #000000 #000000
0;
#X obj 12 112 pack;
#X obj 460 240 tgl 10 0 \$0-grain-auto \$0-grain-auto-r auto-trigger
15 4 0 10 #f4f4dc #202020 #202020 0 1;
#X obj 460 115 nbx 2 15 1 99 0 0 \$0-grain-rate-numerator-s \$0-grain-rate-numerator-r
empty 0 -8 0 10 #202020 #f4f4dc #202020 0 256;
#X obj 493 115 nbx 2 15 1 99 0 0 \$0-grain-rate-denominator-s \$0-grain-rate-denominator-r
empty 0 -8 0 10 #202020 #f4f4dc #202020 0 256;
#N canvas -7 0 681 676 camomile 0;
#N canvas 52 52 450 300 grain 0;
#X obj 2 2 ./param.set 1 \$0-grain-duration-unit;
#X obj 2 26 ./param.get.tog 1 \$0-grain-duration-unit;
#X obj 2 50 ./param.set 2 \$0-grain-duration;
#X obj 2 74 ./param.get 2 \$0-grain-duration;
#X obj 2 98 ./param.set 3 \$0-grain-rate-unit;
#X obj 2 146 ./param.set 4 \$0-grain-rate;
#X obj 2 122 ./param.get.tog 3 \$0-grain-rate-unit;
#X obj 2 194 ./param.set 5 \$0-grain-rate-sync;
#X obj 2 218 ./param.get.tog 5 \$0-grain-rate-sync;
#X obj 2 242 ./param.set 6 \$0-grain-rate-numerator;
#X obj 2 266 ./param.get 6 \$0-grain-rate-numerator;
#X obj 2 314 ./param.get 7 \$0-grain-rate-denominator;
#X obj 2 290 ./param.set 7 \$0-grain-rate-denominator;
#X obj 2 338 ./param.set 8 \$0-grain-dir;
#X obj 2 362 ./param.get.int 8 \$0-grain-dir;
#X obj 2 170 ./param.get 4 \$0-grain-rate;
#X restore 2 2 pd grain;
#N canvas 78 78 1366 685 sample 0;
#X obj 2 2 ./param.set 9 \$0-playhead;
#X obj 2 26 ./param.get 9 \$0-playhead;
#X obj 2 50 ./param.set 10 \$0-loop-start;
#X obj 2 74 ./param.get 10 \$0-loop-start;
#X obj 2 98 ./param.set 11 \$0-loop-end;
#X obj 2 122 ./param.get 11 \$0-loop-end;
#X obj 2 146 ./param.set 12 \$0-playhead-reset;
#X obj 2 170 ./param.get.tog 12 \$0-playhead-reset;
#X obj 2 194 ./param.set 13 \$0-play;
#X obj 2 218 ./param.get.tog 13 \$0-play;
#X obj 2 242 ./param.set 14 \$0-pingpong;
#X obj 2 266 ./param.get.tog 14 \$0-pingpong;
#X obj 2 290 ./param.set 15 \$0-speed;
#X obj 2 314 ./param.get 15 \$0-speed;
#X obj 2 338 ./param.set 16 \$0-sample-note;
#X obj 2 362 ./param.get 16 \$0-sample-note;
#X restore 2 31 pd sample;
#N canvas 104 104 450 300 window 0;
#X obj 2 2 ./param.set 17 \$0-window-sel;
#X obj 2 26 ./param.get.int 17 \$0-window-sel;
#X obj 2 50 ./param.set 18 \$0-fade-in;
#X obj 2 74 ./param.get.tog 18 \$0-fade-in;
#X obj 2 98 ./param.set 19 \$0-fade-out;
#X obj 2 122 ./param.get.tog 19 \$0-fade-out;
#X obj 2 146 ./param.set 20 \$0-fade-time;
#X obj 2 170 ./param.get 20 \$0-fade-time;
#X restore 2 60 pd window;
#X text 69 2 1-8;
#X text 76 31 9-16;
#X text 76 60 17-20;
#N canvas -7 0 681 676 envelope 0;
#X obj 2 2 ./param.set 21 \$0-att;
#X obj 2 26 ./param.get 21 \$0-att;
#X obj 2 50 ./param.set 22 \$0-dec;
#X obj 2 74 ./param.get 22 \$0-dec;
#X obj 2 98 ./param.set 23 \$0-sus;
#X obj 2 122 ./param.get 23 \$0-sus;
#X obj 2 146 ./param.set 24 \$0-rel;
#X obj 2 170 ./param.get 24 \$0-rel;
#X obj 2 194 ./param.set 25 \$0-legato;
#X obj 2 218 ./param.get.tog 25 \$0-legato;
#X obj 2 242 ./param.set 26 \$0-poly;
#X obj 2 266 ./param.get.tog 26 \$0-poly;
#X obj 2 290 ./param.set 27 \$0-bendMode;
#X obj 2 314 ./param.get.tog 27 \$0-bendMode;
#X restore 2 89 pd envelope;
#X text 90 89 21-27;
#N canvas -7 0 681 676 offsets 0;
#X obj 2 2 ./param.set 28 \$0-offset-playhead-unit;
#X obj 2 26 ./param.get.tog 28 \$0-offset-playhead-unit;
#X obj 2 50 ./param.set 29 \$0-offset-playhead;
#X obj 2 74 ./param.get 29 \$0-offset-playhead;
#X obj 2 98 ./param.set 30 \$0-offset-playhead-chance;
#X obj 2 122 ./param.get 30 \$0-offset-playhead-chance;
#X obj 2 146 ./param.set 31 \$0-offset-playhead-precision;
#X obj 2 170 ./param.get 31 \$0-offset-playhead-precision;
#X obj 2 209 ./param.set 32 \$0-offset-pitch-unit;
#X obj 2 233 ./param.get.tog 32 \$0-offset-pitch-unit;
#X obj 2 257 ./param.set 33 \$0-offset-pitch;
#X obj 2 281 ./param.get 33 \$0-offset-pitch;
#X obj 2 305 ./param.set 34 \$0-offset-pitch-chance;
#X obj 2 329 ./param.get 34 \$0-offset-pitch-chance;
#X obj 2 353 ./param.set 35 \$0-offset-pitch-precision;
#X obj 2 377 ./param.get 35 \$0-offset-pitch-precision;
#X obj 2 416 ./param.set 36 \$0-offset-duration-unit;
#X obj 2 440 ./param.get.tog 36 \$0-offset-duration-unit;
#X obj 2 464 ./param.set 37 \$0-offset-duration;
#X obj 2 488 ./param.get 37 \$0-offset-duration;
#X obj 2 512 ./param.set 38 \$0-offset-duration-chance;
#X obj 2 536 ./param.get 38 \$0-offset-duration-chance;
#X obj 2 560 ./param.set 39 \$0-offset-duration-precision;
#X obj 2 584 ./param.get 39 \$0-offset-duration-precision;
#X restore 2 118 pd offsets;
#X text 84 118 28-39;
#X obj 2 157 ./param.set 40 \$0-stereo-amount;
#X obj 2 181 ./param.get 40 \$0-stereo-amount;
#X obj 2 205 ./param.set 41 \$0-stereo-chance;
#X obj 2 229 ./param.get 41 \$0-stereo-chance;
#X obj 2 268 ./param.set 42 \$0-out;
#X obj 2 292 ./param.get 42 \$0-out;
#N canvas -8 -8 1370 729 save 0;
#X obj 12 9 receive save;
#X obj 12 67 send camomile;
#N canvas 633 10 681 659 save-paths 0;
#X obj 12 12 inlet;
#X obj 232 439 outlet;
#X obj 12 114 t b b, f 9;
#X obj 232 381 list prepend save;
#X obj 232 410 list trim;
#X obj 232 211 until;
#X obj 232 182 t f b, f 7;
#X obj 278 211 f 0;
#X obj 232 245 f, f 7;
#X obj 232 274 t f f;
#X obj 305 245 + 1;
#X obj 12 211 until;
#X obj 12 182 t f b, f 7;
#X obj 58 211 f 0;
#X obj 12 245 f;
#X obj 12 274 t f f;
#X obj 71 245 + 1;
#X obj 112 41 r \$0-path-sample;
#X obj 336 41 r \$0-path-window;
#X obj 232 332 list prepend 1;
#X obj 12 332 list prepend 2;
#X obj 112 65 symbol;
#X obj 336 65 symbol;
#X obj 112 12 text define \$0-path-sample-txt;
#X obj 336 12 text define \$0-path-window-txt;
#X obj 232 303 text get \$0-path-sample-txt;
#X obj 12 303 text get \$0-path-window-txt;
#X obj 112 104 text set \$0-path-sample-txt;
#X obj 336 104 text set \$0-path-window-txt;
#X obj 12 153 text size \$0-path-window-txt;
#X obj 232 153 text size \$0-path-sample-txt;
#X connect 0 0 2 0;
#X connect 2 0 29 0;
#X connect 2 1 30 0;
#X connect 3 0 4 0;
#X connect 4 0 1 0;
#X connect 5 0 8 0;
#X connect 6 0 5 0;
#X connect 6 1 7 0;
#X connect 7 0 8 1;
#X connect 8 0 9 0;
#X connect 9 0 25 0;
#X connect 9 1 10 0;
#X connect 10 0 8 1;
#X connect 11 0 14 0;
#X connect 12 0 11 0;
#X connect 12 1 13 0;
#X connect 13 0 14 1;
#X connect 14 0 15 0;
#X connect 15 0 26 0;
#X connect 15 1 16 0;
#X connect 16 0 14 1;
#X connect 17 0 21 0;
#X connect 18 0 22 0;
#X connect 19 0 3 0;
#X connect 20 0 3 0;
#X connect 21 0 27 0;
#X connect 22 0 28 0;
#X connect 25 0 19 0;
#X connect 26 0 20 0;
#X connect 29 0 12 0;
#X connect 30 0 6 0;
#X restore 12 38 pd save-paths;
#X connect 0 0 2 0;
#X connect 2 0 1 0;
#X restore 323 12 pd save;
#N canvas 430 15 681 676 load 0;
#N canvas -8 -8 1366 685 load-paths 0;
#X obj 12 12 inlet;
#X obj 12 41 route 1 2, f 18;
#X obj 73 99 s \$0-path-window-open;
#X obj 12 70 s \$0-path-sample-open;
#X connect 0 0 1 0;
#X connect 1 0 3 0;
#X connect 1 1 2 0;
#X restore 132 41 pd load-paths;
#X f 15;
#X obj 12 12 receive load;
#X connect 1 0 0 0;
#X restore 386 12 pd load;
#X restore 12 460 pd camomile;
#X obj 629 153 tgl 10 0 \$0-listen \$0-listen-r listen 15 4 0 10 #f4f4dc
#202020 #202020 0 1;
#N canvas 104 104 1366 685 listen 0;
#X obj 373 411 r \$0-sample-chan;
#X obj 12 12 r \$0-listen;
#X obj 191 334 tabplay~ \$0-sampleL;
#X obj 345 334 tabplay~ \$0-sampleR;
#X obj 355 459 *~;
#X obj 54 185 r \$0-sample-duration;
#X obj 30 137 max;
#X obj 70 108 t b f;
#X obj 70 84 r \$0-loop-start;
#X obj 30 60 r \$0-playhead;
#X obj 30 161 * 0.01;
#X obj 12 185 f;
#X obj 12 36 sel 1 0, f 33;
#X obj 12 209 *, f 5;
#X msg 355 295 stop;
#X msg 355 363 set 0;
#X obj 355 387 s \$0-listen-r;
#X obj 12 488 delay;
#X obj 44 257 r \$0-loop-end;
#X obj 44 286 -;
#X obj 44 310 * 0.01;
#X obj 12 233 t b f, f 26;
#X obj 54 387 /;
#X obj 64 358 t b f;
#X obj 64 334 r \$0-sample-rate;
#X obj 54 411 * 1000;
#X obj 44 464 *;
#X obj 54 435 t b f;
#X obj 345 488 outlet~;
#X obj 191 488 outlet~;
#X obj 373 435 == 1;
#X connect 0 0 30 0;
#X connect 1 0 12 0;
#X connect 2 0 4 0;
#X connect 2 0 29 0;
#X connect 2 1 15 0;
#X connect 3 0 28 0;
#X connect 4 0 28 0;
#X connect 5 0 13 1;
#X connect 5 0 22 0;
#X connect 6 0 10 0;
#X connect 7 0 6 0;
#X connect 7 0 19 0;
#X connect 7 1 6 1;
#X connect 7 1 19 1;
#X connect 8 0 7 0;
#X connect 8 0 14 0;
#X connect 9 0 6 0;
#X connect 9 0 14 0;
#X connect 10 0 11 1;
#X connect 11 0 13 0;
#X connect 12 0 11 0;
#X connect 12 1 14 0;
#X connect 13 0 21 0;
#X connect 14 0 3 0;
#X connect 14 0 2 0;
#X connect 14 0 15 0;
#X connect 15 0 16 0;
#X connect 17 0 14 0;
#X connect 18 0 19 0;
#X connect 18 0 14 0;
#X connect 19 0 20 0;
#X connect 20 0 26 0;
#X connect 21 0 17 0;
#X connect 21 1 3 0;
#X connect 21 1 2 0;
#X connect 22 0 25 0;
#X connect 23 0 22 0;
#X connect 23 1 22 1;
#X connect 24 0 23 0;
#X connect 25 0 27 0;
#X connect 26 0 17 1;
#X connect 27 0 26 0;
#X connect 27 1 26 1;
#X connect 30 0 4 1;
#X restore 91 239 pd listen;
#X obj 12 87 inlet, f 7;
#X obj 174 42 inlet~;
#X obj 228 42 inlet~;
#X obj 12 279 outlet~;
#X obj 212 279 outlet~;
#X obj 12 189 clone ./voice~ 5, f 29;
#X connect 5 0 114 0;
#X connect 6 0 5 1;
#X connect 6 0 7 1;
#X connect 7 0 115 0;
#X connect 8 0 116 0;
#X connect 9 0 17 0;
#X connect 10 0 24 0;
#X connect 13 0 14 0;
#X connect 15 0 116 1;
#X connect 16 0 17 0;
#X connect 17 0 116 1;
#X connect 18 0 15 0;
#X connect 24 0 23 0;
#X connect 24 1 20 2;
#X connect 24 2 21 0;
#X connect 24 3 25 0;
#X connect 24 4 11 0;
#X connect 25 0 26 0;
#X connect 104 0 27 0;
#X connect 104 0 8 0;
#X connect 110 0 114 0;
#X connect 110 1 115 0;
#X connect 111 0 104 0;
#X connect 112 0 20 0;
#X connect 113 0 20 1;
#X connect 116 0 5 0;
#X connect 116 1 7 0;
#X coords 0 -1 1 1 404 301 2 450 140;
