#N canvas 104 104 1366 685 12;
#X obj 16 66 t b f b;
#X msg 155 124 param change \$1 1;
#X msg 165 182 param change \$1 0;
#X obj 39 153 pack;
#X obj 155 241 s camomile;
#X obj 155 95 f \$1;
#X obj 165 153 f \$1;
#X msg 39 182 param set \$2 \$1;
#X obj 16 18 r \$2-s;
#X obj 26 42 s \$2;
#X connect 0 0 6 0;
#X connect 0 1 3 0;
#X connect 0 2 5 0;
#X connect 1 0 4 0;
#X connect 2 0 4 0;
#X connect 3 0 7 0;
#X connect 5 0 1 0;
#X connect 5 0 3 1;
#X connect 6 0 2 0;
#X connect 7 0 4 0;
#X connect 8 0 0 0;
#X connect 8 0 9 0;
