#N canvas 0 32 1366 685 12;
#X obj 27 242 - 1;
#X obj 27 272 pack 0 0 0;
#X obj 27 182 unpack, f 10;
#X msg 27 152 1 1;
#X obj 27 624 *~;
#X obj 27 648 outlet~;
#X obj 143 624 *~;
#X obj 143 648 outlet~;
#X obj 175 12 inlet;
#X obj 264 112 t f f;
#X obj 85 537 spigot;
#X obj 113 12 inlet;
#X obj 27 112 metro;
#N canvas 686 35 677 708 help 0;
#X text 12 12 inlet 0: mensajes midi (nota + velocity);
#X text 12 39 inlet 1: recibe múltiples mensajes (bang enciende un grano \, adsr trae parámetros de envolvente \, power apaga todas las notas al cambiar entre mono y poly además de evitar que la inlet 0 reciba notas [power 0] y vuelve a permitir que la inlet 0 reciba notas [power 1] \, rate activa o desactiva el encendido automático de los granos [rate metro 1/0] y a qué frecuencia [rate float] \, y todos los mensajes con el prefijo pass son enviados directamente a todas las instancias de granos del [clone]);
#X text 12 189 la velocity de la nota midi se utiliza para disparar la envolvente de la voz \, mientras que la altura de la nota es enviada a todos los granos \; para encender los granos uso el falso mensaje de nota midi [1 1( en conjunción con el objeto [poly] para así poder iterar ordenadamente las instancias de granos del [clone] \, luego esa "entrada midi" se convierte en un simple bang que le indica al grano que debe encenderse;
#X text 31 361 (para más información revisar el parche grain~.pd);
#X restore 1268 649 pd help;
#X text 932 578 esta abstracción está pensada para ser instanciada por un objeto [clone] y representa una voz del sintetizador \, está constituida por una serie de granos producidos por otro [clone];
#X obj 264 142 sel 0;
#X msg 264 172 0;
#X obj 85 513 list trim;
#X obj 85 489 list prepend all;
#X obj 353 531 list trim;
#X obj 353 507 list prepend all;
#X msg 496 478 switch \$1;
#X obj 363 329 *, f 6;
#X obj 390 242 t b f, f 6;
#X obj 370 271 /, f 5;
#X obj 370 300 t b f;
#X obj 363 468 list prepend phas;
#X obj 370 213 route rate duration;
#X obj 363 148 route speed pos;
#X obj 517 177 route manual noteon;
#X msg 566 262 0;
#X msg 591 262 1;
#X obj 527 262 f;
#X obj 527 292 spigot;
#X obj 363 439 *, f 10;
#X obj 709 525 switch~;
#X obj 646 496 f, f 5;
#X obj 664 299 route rel;
#X obj 646 323 f;
#X obj 646 347 t b f;
#X obj 646 371 delay;
#X msg 646 419 0;
#X obj 646 251 sel 0, f 14;
#X msg 741 299 1;
#X obj 646 443 t b f;
#X obj 709 467 loadbang;
#X obj 646 467 delay 5;
#X obj 623 203 r \$0-vel;
#X obj 664 275 r \$0-adsr;
#X obj 219 82 s \$0-adsr;
#X obj 257 561 r \$0-adsr;
#X obj 194 392 swap;
#X obj 113 431 f;
#X obj 264 469 s \$0-vel;
#X obj 194 421 / 127;
#X obj 113 363 route bend, f 12;
#X obj 113 392 t b f;
#X obj 113 460 +, f 5;
#X obj 211 561 f;
#X obj 229 532 r \$0-vel;
#X obj 211 508 r \$0-adsr-on;
#X obj 623 227 t b f f;
#X obj 623 549 s \$0-adsr-on;
#X obj 692 371 == 0;
#X obj 646 395 spigot, f 7;
#N canvas 4 44 1366 685 phase 0;
#X obj 67 104 sel 0 1;
#X msg 92 134 2;
#X obj 35 74 t b f;
#X msg 67 134 1;
#X obj 17 164 /;
#X obj 17 826 phasor~;
#X obj 17 14 inlet;
#X obj 17 134 f;
#X obj 35 44 r \$0-pingpong;
#X obj 433 391 inlet;
#X obj 309 83 r \$0-loop;
#X obj 309 108 route start end;
#X obj 309 225 -;
#X msg 309 275 1;
#X obj 309 300 /, f 5;
#X obj 309 250 t b f;
#X obj 17 710 *;
#X obj 17 1135 *;
#X obj 17 1164 +, f 5;
#X obj 27 850 r \$0-snap;
#X obj 17 874 snapshot~;
#X obj 17 903 *;
#X obj 17 1193 outlet;
#X obj 63 710 *;
#X obj 433 556 clip, f 6;
#X obj 63 768 -, f 5;
#X obj 95 739 *;
#X obj 309 138 t b f;
#X obj 63 797 clip 0 0.999999;
#X obj 463 430 f;
#X obj 17 1106 -;
#X obj 40 1048 *, f 5;
#X obj 40 1019 /;
#X obj 72 961 wrap;
#X obj 40 990 -;
#X obj 17 932 t f f f;
#X obj 40 1077 * 2;
#X obj 433 634 +, f 8;
#X obj 433 605 /;
#X obj 486 556 * 0.5;
#X obj 486 605 *;
#X obj 463 459 t f b, f 8;
#X obj 341 167 s \$0-startLoopWireless;
#X obj 95 710 r \$0-startLoopWireless;
#X obj 327 196 r \$0-startLoopWireless;
#X obj 49 1135 r \$0-startLoopWireless;
#X obj 486 517 r \$0-startLoopWireless;
#X text 65 13 playback rate (speed * (sample rate / sample duration));
#X obj 369 359 s \$0-inverseLengthWireless;
#X obj 81 671 r \$0-inverseLengthWireless;
#X text 479 391 playhead position;
#X obj 309 330 t b b b f;
#X text 181 556 limit position inside loop length;
#X text 512 635 make position work with pingpong scheme;
#X text 193 796 phase (position * inverse length - start * inverse length);
#X text 366 299 inverse length (1 / length);
#X text 352 224 length (end - start);
#X obj 360 138 t f f;
#X connect 0 0 3 0;
#X connect 0 1 1 0;
#X connect 1 0 4 1;
#X connect 1 0 21 1;
#X connect 1 0 38 1;
#X connect 2 0 7 0;
#X connect 2 0 29 0;
#X connect 2 1 0 0;
#X connect 2 1 40 1;
#X connect 3 0 4 1;
#X connect 3 0 21 1;
#X connect 3 0 38 1;
#X connect 4 0 16 0;
#X connect 5 0 20 0;
#X connect 6 0 7 0;
#X connect 7 0 4 0;
#X connect 8 0 2 0;
#X connect 9 0 24 0;
#X connect 10 0 11 0;
#X connect 11 0 27 0;
#X connect 11 1 57 0;
#X connect 12 0 15 0;
#X connect 13 0 14 0;
#X connect 14 0 51 0;
#X connect 15 0 13 0;
#X connect 15 1 14 1;
#X connect 15 1 17 1;
#X connect 16 0 5 0;
#X connect 17 0 18 0;
#X connect 18 0 22 0;
#X connect 18 0 29 1;
#X connect 19 0 20 0;
#X connect 20 0 21 0;
#X connect 21 0 35 0;
#X connect 23 0 25 0;
#X connect 24 0 38 0;
#X connect 25 0 28 0;
#X connect 26 0 25 1;
#X connect 27 0 12 0;
#X connect 27 1 42 0;
#X connect 28 0 5 1;
#X connect 29 0 41 0;
#X connect 30 0 17 0;
#X connect 31 0 36 0;
#X connect 32 0 31 0;
#X connect 33 0 34 1;
#X connect 33 0 31 1;
#X connect 34 0 32 0;
#X connect 34 0 32 1;
#X connect 35 0 30 0;
#X connect 35 1 34 0;
#X connect 35 2 33 0;
#X connect 36 0 30 1;
#X connect 37 0 23 0;
#X connect 38 0 37 0;
#X connect 39 0 40 0;
#X connect 40 0 37 1;
#X connect 41 0 24 0;
#X connect 41 1 40 0;
#X connect 43 0 26 0;
#X connect 44 0 12 1;
#X connect 45 0 18 1;
#X connect 46 0 24 1;
#X connect 46 0 39 0;
#X connect 49 0 26 1;
#X connect 49 0 23 1;
#X connect 49 0 16 1;
#X connect 51 0 16 0;
#X connect 51 1 29 0;
#X connect 51 2 26 0;
#X connect 51 3 48 0;
#X connect 57 0 12 0;
#X connect 57 1 24 2;
#X restore 363 358 pd phase;
#X obj 397 66 s \$0-pingpong;
#X obj 363 119 route playhead sample;
#X obj 27 302 t a b;
#X obj 175 42 route bang adsr power rate pass pingpong loop;
#X obj 442 90 s \$0-loop;
#X obj 59 332 s \$0-snap;
#X obj 211 585 ./adsr~;
#X obj 27 82 route metro float sync;
#X obj 527 233 bang;
#X obj 27 561 clone ./grain~ 8, f 17;
#X obj 27 212 poly 8 1, f 10;
#X obj 517 201 t f b;
#X msg 709 496 0;
#X connect 0 0 1 0;
#X connect 1 0 68 0;
#X connect 2 0 76 0;
#X connect 2 1 76 1;
#X connect 3 0 2 0;
#X connect 4 0 5 0;
#X connect 6 0 7 0;
#X connect 8 0 69 0;
#X connect 9 0 15 0;
#X connect 9 1 10 1;
#X connect 10 0 75 1;
#X connect 11 0 55 0;
#X connect 12 0 3 0;
#X connect 15 0 16 0;
#X connect 16 0 53 0;
#X connect 17 0 74 0;
#X connect 17 0 10 0;
#X connect 18 0 17 0;
#X connect 19 0 75 2;
#X connect 20 0 19 0;
#X connect 21 0 20 0;
#X connect 22 0 65 0;
#X connect 23 0 24 0;
#X connect 23 1 24 1;
#X connect 23 1 34 1;
#X connect 24 0 25 0;
#X connect 25 0 22 0;
#X connect 25 1 22 1;
#X connect 26 0 20 0;
#X connect 27 0 24 0;
#X connect 27 1 23 0;
#X connect 28 0 22 0;
#X connect 28 1 29 0;
#X connect 29 0 77 0;
#X connect 29 1 31 0;
#X connect 29 1 32 1;
#X connect 30 0 33 1;
#X connect 31 0 33 1;
#X connect 32 0 33 0;
#X connect 33 0 65 1;
#X connect 34 0 26 0;
#X connect 36 0 35 0;
#X connect 37 0 38 1;
#X connect 38 0 39 0;
#X connect 39 0 40 0;
#X connect 39 1 40 1;
#X connect 40 0 64 0;
#X connect 41 0 44 0;
#X connect 41 0 21 0;
#X connect 42 0 38 0;
#X connect 42 1 43 0;
#X connect 43 0 36 0;
#X connect 43 0 21 0;
#X connect 44 0 46 0;
#X connect 44 1 36 1;
#X connect 45 0 78 0;
#X connect 46 0 36 0;
#X connect 47 0 61 0;
#X connect 48 0 37 0;
#X connect 50 0 72 1;
#X connect 51 0 54 0;
#X connect 51 1 52 0;
#X connect 52 0 57 0;
#X connect 54 0 53 0;
#X connect 55 0 56 0;
#X connect 55 1 51 0;
#X connect 56 0 52 0;
#X connect 56 1 57 1;
#X connect 57 0 18 0;
#X connect 58 0 72 0;
#X connect 59 0 58 1;
#X connect 60 0 58 0;
#X connect 61 0 62 0;
#X connect 61 1 42 0;
#X connect 61 2 63 0;
#X connect 63 0 64 1;
#X connect 64 0 41 0;
#X connect 65 0 34 0;
#X connect 67 0 28 0;
#X connect 67 1 27 0;
#X connect 68 0 75 0;
#X connect 68 1 71 0;
#X connect 69 0 3 0;
#X connect 69 1 49 0;
#X connect 69 2 9 0;
#X connect 69 3 73 0;
#X connect 69 4 20 0;
#X connect 69 4 67 0;
#X connect 69 5 66 0;
#X connect 69 6 70 0;
#X connect 72 0 6 1;
#X connect 72 0 4 1;
#X connect 73 0 12 0;
#X connect 73 1 12 1;
#X connect 73 2 3 0;
#X connect 74 0 32 0;
#X connect 75 0 4 0;
#X connect 75 1 6 0;
#X connect 76 0 0 0;
#X connect 76 1 1 1;
#X connect 76 2 1 2;
#X connect 77 0 65 1;
#X connect 77 1 30 0;
#X connect 78 0 35 0;
